<svg xmlns="http://www.w3.org/2000/svg" width="26" height="29" viewBox="0 0 26 29">
  <path id="calendar" d="M27,31H5a2,2,0,0,1-2-2V7A2,2,0,0,1,5,5H7V6a3,3,0,0,0,6,0V5h6V6a3,3,0,0,0,6,0V5h2a2,2,0,0,1,2,2V29A2,2,0,0,1,27,31Zm0-19H5V29H27ZM10,17H7V14h3Zm0,5H7V19h3Zm0,5H7V24h3Zm5-10H12V14h3Zm0,5H12V19h3Zm0,5H12V24h3Zm5-10H17V14h3Zm0,5H17V19h3Zm0,5H17V24h3Zm5-10H22V14h3Zm0,5H22V19h3Zm0,5H22V24h3ZM21.969,8A1.969,1.969,0,0,1,20,6.031V3.969a1.969,1.969,0,1,1,3.938,0V6.031A1.969,1.969,0,0,1,21.969,8Zm-12,0A1.969,1.969,0,0,1,8,6.031V3.969a1.969,1.969,0,1,1,3.938,0V6.031A1.97,1.97,0,0,1,9.969,8Z" transform="translate(-3 -2)" fill="#fff"/>
</svg>
