<?xml version="1.0" standalone="no"?>
<!DOCTYPE svg PUBLIC "-//W3C//DTD SVG 20010904//EN"
  "http://www.w3.org/TR/2001/REC-SVG-20010904/DTD/svg10.dtd">
<svg version="1.0" xmlns="http://www.w3.org/2000/svg"
     width="1024.000000pt" height="1024.000000pt" viewBox="0 0 1024.000000 1024.000000"
     preserveAspectRatio="xMidYMid meet">
  <metadata>
    Created by potrace 1.11, written by Peter Selinger 2001-2013
  </metadata>
  <g transform="translate(0.000000,1024.000000) scale(0.100000,-0.100000)"
     fill="#000000" stroke="none">
    <path d="M4858 9995 c-2 -2 -48 -6 -103 -9 -55 -4 -116 -9 -135 -11 -19 -3
-55 -7 -80 -10 -61 -7 -132 -17 -150 -20 -8 -1 -35 -6 -60 -10 -25 -3 -57 -9
-73 -11 -92 -15 -408 -88 -466 -109 -23 -8 -42 -14 -44 -13 -12 4 -357 -114
-432 -147 -16 -8 -75 -32 -130 -55 -306 -128 -670 -337 -975 -562 -291 -214
-622 -530 -863 -823 -9 -11 -53 -67 -97 -125 -45 -58 -88 -113 -96 -123 -8 -9
-14 -19 -14 -22 0 -3 -22 -36 -49 -73 -47 -66 -159 -241 -174 -272 -4 -8 -21
-37 -37 -65 -126 -213 -286 -566 -376 -829 -34 -100 -109 -354 -118 -398 -2
-13 -7 -30 -10 -38 -3 -8 -7 -26 -10 -40 -2 -14 -9 -47 -16 -75 -15 -68 -57
-308 -64 -370 -6 -52 -15 -122 -21 -165 -26 -176 -26 -825 0 -992 2 -13 6 -50
9 -83 4 -33 8 -71 11 -85 2 -14 11 -70 19 -125 9 -55 18 -111 21 -125 3 -14 8
-38 11 -55 37 -211 178 -680 268 -890 171 -399 333 -688 568 -1013 76 -105
208 -272 242 -308 6 -6 38 -42 71 -79 86 -98 254 -265 370 -370 55 -49 102
-91 105 -95 3 -3 39 -32 80 -66 218 -176 444 -330 687 -467 86 -49 377 -197
387 -197 3 0 36 -14 73 -31 177 -81 606 -227 743 -253 14 -2 32 -7 40 -10 8
-3 26 -7 40 -10 14 -2 57 -11 95 -19 105 -23 175 -36 225 -42 25 -3 52 -8 60
-10 8 -2 40 -7 70 -10 30 -3 66 -8 80 -10 228 -35 872 -41 1085 -10 17 2 53 7
80 11 102 12 122 15 210 29 120 20 132 22 260 51 60 13 119 26 130 29 91 20
322 90 463 141 121 44 344 134 380 154 9 5 76 38 147 73 293 144 638 363 861
546 17 14 53 44 80 66 163 134 379 342 514 495 41 47 77 87 80 90 52 52 247
309 337 445 84 126 183 283 183 291 0 2 11 22 25 44 65 103 230 452 302 640
21 55 101 294 133 395 9 30 57 214 65 254 3 11 7 31 10 43 6 24 51 263 59 313
3 17 8 57 12 90 3 33 8 69 10 80 2 11 7 52 10 90 3 39 7 86 10 105 3 19 6 166
8 325 4 346 -10 548 -59 850 -59 355 -150 685 -284 1018 -290 725 -765 1388
-1356 1891 -44 38 -91 78 -105 90 -135 119 -499 363 -725 486 -327 178 -753
351 -1050 426 -16 4 -34 8 -40 10 -12 4 -134 34 -155 39 -8 2 -46 10 -85 19
-77 17 -287 53 -362 62 -26 3 -61 7 -78 9 -35 5 -110 14 -180 21 -53 6 -652
14 -657 9z"/>
  </g>
</svg>
