<svg><defs><font horiz-adv-x="1104"><font-face ascent="1638" bbox="-198 -482 1888 1899" cap-height="1434" descent="-410" panose-1="2 11 5 2 4 2 4 2 2 3" underline-position="-355" underline-thickness="119" unicode-range="U+0020-U+02DC" units-per-em="2048" x-height="1024"/><missing-glyph d="M68 0v1365h544v-1365h-544zM136 68h408v1229h-408v-1229z" horiz-adv-x="748"/><glyph d="M68 0v1365h544v-1365h-544zM136 68h408v1229h-408v-1229z" glyph-name=".notdef" horiz-adv-x="748"/><glyph glyph-name="space" horiz-adv-x="561" unicode="&#x20;"/><glyph d="M375 1434l-19-1030h-135l-18 1030h172zM291-18c-30.667 0-56.834 10.667-78.501 32s-32.5 47.333-32.5 78 10.833 56.834 32.5 78.501 47.834 32.5 78.501 32.5c30 0 56-10.833 78-32.5s33-47.834 33-78.501-11-56.667-33-78-48-32-78-32z" glyph-name="exclam" horiz-adv-x="582" unicode="&#x21;"/><glyph d="M323 1434l-30-447h-115l-30 447h175zM655 1434l-30-447h-115l-30 447h175z" glyph-name="quotedbl" horiz-adv-x="803" unicode="&#x22;"/><glyph d="M1166 1032l-23-106h-261l-63-300h281l-27-106h-275l-88-397h-126l86 397h-250l-84-397h-125l84 397h-262l20 106h265l61 300h-277l21 106h277l84 402h126l-84-402h252l86 402h123l-84-402h263zM758 926h-252l-66-300h254z" glyph-name="numbersign" horiz-adv-x="1210" unicode="&#x23;"/><glyph d="M616 8v-217h-104v209c-142 0-257.333 28.667-346 86v174c38.667-34 91.5-62.5 158.5-85.5s129.5-34.5 187.5-34.5v512c-146.667 70.667-241.667 135.834-285 195.501s-65 130.167-65 211.5c0 96.667 33 180.167 99 250.5s149.667 112.5 251 126.5v180h104v-176c130.667-4 221-22.667 271-56v-170c-68 53.333-158.333 82-271 86v-528c138.667-66 233.5-129.833 284.5-191.5s76.5-131.834 76.5-210.501c0-94.667-31.833-174.167-95.5-238.5s-152.167-105.5-265.5-123.5zM512 828v465.999c-56-11.333-100.333-36.166-133-74.499s-49-84.833-49-139.5c0-57.333 13.333-104.333 40-141s74-73.667 142-111zM616 599.999v-452c128.667 28 193 97.333 193 208 0 92-64.333 173.333-193 244z" glyph-name="dollar" unicode="&#x24;"/><glyph d="M404 715c-98.667 0-177.333 32.5-236 97.5s-88 151.833-88 260.5c0 118.667 31 212.167 93 280.5s145.667 102.5 251 102.5c102 0 181.167-31.667 237.5-95s84.5-152.333 84.5-267-31.5-206.5-94.5-275.5-145.5-103.5-247.5-103.5zM418.001 1346c-63.333 0-113.333-23.501-150-70.501s-55-111.5-55-193.5c0-80.667 18-143.5 54-188.5s85-67.5 147-67.5c62.667 0 111.667 23.333 147 70s53 111.334 53 194.001c0 80.667-17.5 143.5-52.5 188.5s-82.833 67.5-143.5 67.5zM1364 1434l-920-1444h-143l919 1444h144zM1258-22.001c-98.667 0-177.333 32.667-236 98s-88 152-88 260c0 118.667 31.333 212.5 94 281.5s146 103.5 250 103.5c101.333 0 180.333-32 237-96s85-153.667 85-269c0-114-31.5-205.5-94.5-274.5s-145.5-103.5-247.5-103.5zM1272 607.999c-64 0-114.167-23.332-150.5-69.999s-54.5-111.334-54.5-194.001c0-79.333 18-141.5 54-186.5s85-67.5 147-67.5c62.667 0 111.667 23.5 147 70.5s53 111.5 53 193.5c0 81.333-17.5 144-52.5 188s-82.833 66-143.5 66z" glyph-name="percent" horiz-adv-x="1676" unicode="&#x25;"/><glyph d="M1445-23c-38 0-71.498 5.16797-100.498 15.501s-55.833 25-80.5 44-48.5 42.167-71.5 69.5-47.167 58.333-72.5 93c-26.667-28.667-57.5-56.334-92.5-83.001s-73.833-50.334-116.5-71.001-89.334-37.167-140.001-49.5-105.667-18.5-165-18.5c-72 0-138 9-198 27s-111.333 44.5-154 79.5-75.834 78.167-99.501 129.5-35.5 110.333-35.5 177c0 102 29 189.167 87 261.5s140 131.5 246 177.5c-20 14.667-40 31.834-60 51.501s-37.833 42-53.5 67-28.334 52.667-38.001 83-14.5 63.5-14.5 99.5c0 52.667 9.5 99.334 28.5 140.001s45.167 75 78.5 103 72.666 49.167 117.999 63.5 94.333 21.5 147 21.5c52 0 99.5-7.16699 142.5-21.5s80-34.833 111-61.5 55.167-58.667 72.5-96 26-79 26-125c0-80-22.833-146.5-68.5-199.5s-114.167-98.167-205.5-135.5c46-18 87.667-40 125-66s71.833-55 103.5-87 61.167-66.333 88.5-103l81-114c54 75.333 94.667 158.333 122 249s41 185.667 41 285c0 25.333-1.5 49.166-4.5 71.499s-7.16699 44.5-12.5 66.5h159c5.33301-22 8.5-42.833 9.5-62.5l3.5-70.5c0-60.667-6.33301-121.667-19-183s-29.667-120.833-51-178.5-46.166-112.5-74.499-164.5-58.166-99.667-89.499-143c23.333-32 44.666-59.833 63.999-83.5s38.833-43.5 58.5-59.5 40-27.833 61-35.5 44.833-11.5 71.5-11.5c20 0 40.333 2.66699 61 8s42 12 64 20v-152c-24-9.33301-49.167-16.333-75.5-21s-52.166-7-77.499-7zM606.002 119.001c50.667 0 97.333 5.50195 140 16.502s82 25.667 118 44 68.667 39.666 98 63.999 56 49.833 80 76.5c-40.667 63.333-78.167 117.5-112.5 162.5s-69 83.833-104 116.5-72.333 60.667-112 84-85.5 45-137.5 65c-42-16.667-80.667-35.167-116-55.5s-65.833-44.333-91.5-72-45.834-59.834-60.501-96.501-22-79.667-22-129c0-45.333 8.33301-85.333 25-120s39.5-63.5 68.5-86.5 62.833-40.333 101.5-52 80.334-17.5 125.001-17.5zM856.001 1140c0 33.333-6.16699 61.668-18.5 85.001s-28 42.666-47 57.999-40.167 26.5-63.5 33.5-46.333 10.5-69 10.5c-65.333 0-117.5-17.667-156.5-53s-58.833-83.333-59.5-144c0-27.333 4.16699-53 12.5-77s20-46.333 35-67 32.5-39 52.5-55 41.333-29.667 64-41c84 29.333 146.667 63.5 188 102.5s62 88.167 62 147.5z" glyph-name="ampersand" horiz-adv-x="1639" unicode="&#x26;"/><glyph d="M323 1434l-30-447h-115l-30 447h175z" glyph-name="quotesingle" horiz-adv-x="471" unicode="&#x27;"/><glyph d="M780 1104l-274-56 190-243-110-76-156 265-158-265-110 76 190 243-276 56 45 125 262-99-23 304h138l-23-304 263 99z" glyph-name="asterisk" horiz-adv-x="854" unicode="&#x2a;"/><glyph d="M1172 530h-404v-403h-133v403h-403v134h403v403h133v-403h404v-134z" glyph-name="plus" horiz-adv-x="1401" unicode="&#x2b;"/><glyph d="M316 228l-160-492h-117l117 492h160z" glyph-name="comma" horiz-adv-x="444" unicode="&#x2c;"/><glyph d="M690 506h-546v129h546v-129z" glyph-name="hyphen" horiz-adv-x="819" unicode="&#x2d;"/><glyph d="M223-22c-30.667 0-56.834 11-78.501 33s-32.5 48.333-32.5 79 10.833 57.167 32.5 79.5 47.834 33.5 78.501 33.5c31.333 0 58-11.167 80-33.5s33-48.833 33-79.5-11-57-33-79-48.667-33-80-33z" glyph-name="period" horiz-adv-x="444" unicode="&#x2e;"/><glyph d="M813 1434l-688-1672h-153l686 1672h155z" glyph-name="slash" horiz-adv-x="798" unicode="&#x2f;"/><glyph d="M538-24c-142 0-252.833 61.001-332.5 183.001s-119.5 298.333-119.5 529c0 253.333 41.5 445 124.5 575s202.833 195 359.5 195c300 0 450-245 450-735 0-242.667-42.333-427.834-127-555.501s-203-191.5-355-191.5zM561 1319c-204.667 0-307-207.667-307-623 0-388 100.333-582 301-582 198 0 297 197.333 297 592 0 408.667-97 613-291 613z" glyph-name="zero" unicode="&#x30;"/><glyph d="M987 0h-811v144h324v1114l-332-99v156l496 151v-1322h323v-144z" glyph-name="one" unicode="&#x31;"/><glyph d="M960 0h-864.002v146l418 419c106.667 106.667 182.834 195.5 228.501 266.5s68.5 146.833 68.5 227.5c0 82.667-23.667 146.667-71 192s-114.666 68-201.999 68c-128 0-250.667-54.667-368-164v172c112 87.333 242.333 131 391 131 128 0 228.667-34.667 302-104s110-162.333 110-279c0-92-25.333-181.833-76-269.5s-141.667-196.5-273-326.5l-331-327v-4h667v-148z" glyph-name="two" unicode="&#x32;"/><glyph d="M131 53l-.00097656 176.999c98-77.333 208.667-116 332-116 100 0 179.833 25 239.5 75s89.5 117.333 89.5 202c0 187.333-133 281-399 281h-119v139h113c236.667 0 355 88 355 264 0 162.667-90.333 244-271 244-100.667 0-195.667-34.333-285-103v160c92 54.667 200.667 82 326 82 120.667 0 217.167-32 289.5-96s108.5-146 108.5-246c0-188.667-96-310-288-364v-4c103.333-10 185.5-46.167 246.5-108.5s91.5-140.166 91.5-233.499c0-128.667-46.167-232.5-138.5-311.5s-214.166-118.5-365.499-118.5c-136 0-244.333 25.667-325 77z" glyph-name="three" unicode="&#x33;"/><glyph d="M1034 381h-184v-381h-162v381h-674v107l638 946h198v-920h184v-133zM688 514l-.00097656 620c0 44 1.33301 93.333 4 148h-4c-9.33301-24-27.666-60.667-54.999-110l-441-658h496z" glyph-name="four" unicode="&#x34;"/><glyph d="M164 35l-.00097656 174.001c98-63.333 197.667-95 299-95s183 28.667 245 86 93 133.333 93 228c0 94-31.667 167.333-95 220s-154 79-272 79c-40 0-115-4-225-12v719h694v-148h-539v-420c44 2.66699 84.667 4 122 4 153.333 0 272-38.5 356-115.5s126-182.5 126-316.5c0-138.667-45.167-250.334-135.5-335.001s-214.166-127-371.499-127c-132.667 0-231.667 19.667-297 59z" glyph-name="five" unicode="&#x35;"/><glyph d="M934 1417v-155c-74 38-152 57-234 57-127.333 0-229.166-56.667-305.499-170s-114.5-265-114.5-455h4c66.667 135.333 176 203 328 203 125.333 0 225-40.167 299-120.5s111-187.833 111-322.5c0-140.667-42.333-255.5-127-344.5s-192.334-133.5-323.001-133.5c-144 0-257 57.333-339 172s-123 275.667-123 483c0 251.333 53.667 452 161 602s249 225 425 225c100 0 179.333-13.667 238-41zM576 758c-84.667 0-153.334-28.666-206.001-85.999s-79-125-79-203c0-98 26.167-181.667 78.5-251s121.833-104 208.5-104c82.667 0 149.334 30.167 200.001 90.5s76 136.833 76 229.5c0 101.333-24.333 180.666-73 237.999s-117 86-205 86z" glyph-name="six" unicode="&#x36;"/><glyph d="M1010 1382l-568-1382h-170l537 1286h-723v148h924v-52z" glyph-name="seven" unicode="&#x37;"/><glyph d="M410 752v4.00098c-172 80-258 196-258 348 0 103.333 39.333 188.166 118 254.499s180 99.5 304 99.5c112 0 204-31 276-93s108-141.667 108-239c0-158.667-88.667-282-266-370v-4c209.333-74.667 314-204 314-388 0-118.667-42.667-213-128-283s-204-105-356-105c-122.667 0-223.667 34.667-303 104s-119 159.333-119 270c0 184 103.333 318 310 402zM790 1106c0 66-20.668 118.001-62.001 156.001s-97.666 57-168.999 57c-66.667 0-123.167-19.833-169.5-59.5s-69.5-90.167-69.5-151.5c0-124.667 77.667-218.667 233-282 158 65.333 237 158.666 237 279.999zM541.999 674.002c-182.667-72.667-274-178-274-316 0-71.333 26.5-129.833 79.5-175.5s122.833-68.5 209.5-68.5c82.667 0 150.167 22.5 202.5 67.5s78.5 101.833 78.5 170.5c0 144-98.667 251.333-296 322z" glyph-name="eight" unicode="&#x38;"/><glyph d="M172 24l.00097656 158c80-45.333 164.667-68 254-68 130 0 231.167 52.333 303.5 157s108.5 253.334 108.5 446.001c-1.33301-.666992-2.66602-.666992-3.99902 0-61.333-123.333-168-185-320-185-122.667 0-223.334 41.667-302.001 125s-118 190.666-118 321.999c0 140 43.167 254.833 129.5 344.5s196.833 134.5 331.5 134.5c141.333 0 251.5-55.833 330.5-167.5s118.5-274.167 118.5-487.5c0-264.667-51.333-468.667-154-612s-245.334-215-428.001-215c-96 0-179.333 16-250 48zM540.001 1319c-79.333 0-145.501-29.833-198.501-89.5s-79.5-135.5-79.5-227.5c0-100.667 26-179.834 78-237.501s122.333-86.5 211-86.5c77.333 0 142.833 26.333 196.5 79s80.5 117 80.5 193c0 108.667-26.667 197.334-80 266.001s-122.666 103-207.999 103z" glyph-name="nine" unicode="&#x39;"/><glyph d="M223 824c-30.667 0-56.834 11-78.501 33s-32.5 48.333-32.5 79 10.833 56.667 32.5 78 47.834 32 78.501 32c31.333 0 58-10.667 80-32s33-47.333 33-78-11-57-33-79-48.667-33-80-33zM223-22c-30.667 0-56.834 11-78.501 33s-32.5 48.333-32.5 79 10.833 57.167 32.5 79.5 47.834 33.5 78.501 33.5c31.333 0 58-11.167 80-33.5s33-48.833 33-79.5-11-57-33-79-48.667-33-80-33z" glyph-name="colon" horiz-adv-x="444" unicode="&#x3a;"/><glyph d="M226 824c-31.333 0-57.833 11-79.5 33s-32.5 48.333-32.5 79 10.833 56.667 32.5 78 48.167 32 79.5 32c30.667 0 57-10.667 79-32s33-47.333 33-78-11-57-33-79-48.333-33-79-33zM316 228l-160-492h-117l117 492h160z" glyph-name="semicolon" horiz-adv-x="444" unicode="&#x3b;"/><glyph d="M1132 127l-860 432v59l860 482v-150l-642-356v-4l642-314v-149z" glyph-name="less" horiz-adv-x="1401" unicode="&#x3c;"/><glyph d="M1172 744h-940v132h940v-132zM1172 318h-940v132h940v-132z" glyph-name="equal" horiz-adv-x="1401" unicode="&#x3d;"/><glyph d="M1132 559l-860-432v149l644 312v6l-644 356v150l860-482v-59z" glyph-name="greater" horiz-adv-x="1401" unicode="&#x3e;"/><glyph d="M335 398c-6 17.333-11.3359 39.8301-16.0029 67.4971s-7 55.167-7 82.5c0 42.667 8.5 81.167 25.5 115.5s38.167 66.5 63.5 96.5 53 58.833 83 86.5 57.667 55.667 83 84 46.5 58 63.5 89 25.5 65.167 25.5 102.5c0 32-6.16699 60.333-18.5 85s-29.166 45.334-50.499 62.001-46 29.167-74 37.5-57.667 12.5-89 12.5c-112.667 0-210.334-44.333-293.001-133v176c102 64 207.667 96 317 96 50.667 0 98.334-6.66699 143.001-20s83.834-33.166 117.501-59.499 60.167-59.166 79.5-98.499 29-85 29-137c0-49.333-8.66699-93.333-26-132s-39.166-74.167-65.499-106.5-54.833-62.5-85.5-90.5-59.167-55.833-85.5-83.5-48.166-56.5-65.499-86.5-26-63-26-99c0-30.667 3.66699-58.5 11-83.5s14.666-46.167 21.999-63.5h-161zM424.997-18.0029c-29.333 0-55.333 10.667-78 32-22 21.333-33 47.333-33 78 0 31.333 11 57.333 33 78 22 22 48 33 78 33s56-11 78-33c22-20.667 33-46.667 33-78 0-30.667-11-56.667-33-78-22.667-21.333-48.667-32-78-32z" glyph-name="question" horiz-adv-x="918" unicode="&#x3f;"/><glyph d="M1164 420l-5.00098.00195312c-48.667-158.667-144.334-238-287.001-238-91.333 0-164.833 33.667-220.5 101s-83.5 158-83.5 272c0 150.667 38.5 275.834 115.5 375.501s178.167 149.5 303.5 149.5c48 0 90.833-12.333 128.5-37s61.834-55.667 72.501-93h4c1.33301 18.667 4.66602 57 9.99902 115h125c-31.333-367.333-47-554.333-47-561 0-138 39.667-207 119-207 72 0 131.833 39 179.5 117s71.5 179 71.5 303c0 183.333-58 333-174 449s-276.667 174-482 174c-198 0-361.667-69.333-491-208s-194-312-194-520c0-204.667 61.5-369.834 184.5-495.501s288.833-188.5 497.5-188.5c164.667 0 305.334 27.333 422.001 82v-124c-115.333-49.333-259.333-74-432-74-242.667 0-438.167 73.167-586.5 219.5s-222.5 337.833-222.5 574.5c0 244 77.833 446.333 233.5 607s354.5 241 596.5 241c226.667 0 414.334-67.333 563.001-202s223-310.334 223-527.001c0-158.667-39.167-288.834-117.5-390.501s-173.833-152.5-286.5-152.5c-146 0-219.333 79.333-220 238zM984.999 964.002c-82.667 0-149.499-39.332-200.499-117.999s-76.5-176.334-76.5-293.001c0-78.667 17.167-140.667 51.5-186s80.166-68 137.499-68c82.667 0 148.167 41.167 196.5 123.5s72.5 191.5 72.5 327.5c0 142.667-60.333 214-181 214z" glyph-name="at" horiz-adv-x="1956" unicode="&#x40;"/><glyph d="M1298 0h-186l-152 402h-608l-143-402h-187l550 1434h174zM905 553l-225 611c-7.33301 20-14.666 52-21.999 96h-4c-6.66699-40.667-14.334-72.667-23.001-96l-223-611h497z" glyph-name="A" horiz-adv-x="1321" unicode="&#x41;"/><glyph d="M188 0v1434h408c124 0 222.333-30.333 295-91s109-139.667 109-237c0-81.333-22-152-66-212s-104.667-102.667-182-128v-4c96.667-11.333 174-47.833 232-109.5s87-141.834 87-240.501c0-122.667-44-222-132-298s-199-114-333-114h-418zM356 1282v-463h172c92 0 164.333 22.167 217 66.5s79 106.833 79 187.5c0 139.333-91.667 209-275 209h-193zM356 668.001v-516h228c98.667 0 175.167 23.333 229.5 70s81.5 110.667 81.5 192c0 169.333-115.333 254-346 254h-193z" glyph-name="B" horiz-adv-x="1174" unicode="&#x42;"/><glyph d="M1164 60c-106-56-238-83.9971-396-83.9971-204 0-367.333 65.667-490 197s-184 303.666-184 516.999c0 229.333 69 414.666 207 555.999s313 212 525 212c136 0 248.667-19.667 338-59v-179c-102.667 57.333-216 86-340 86-164.667 0-298.167-55-400.5-165s-153.5-257-153.5-441c0-174.667 47.833-313.834 143.5-417.501s221.167-155.5 376.5-155.5c144 0 268.667 32 374 96v-163z" glyph-name="C" horiz-adv-x="1268" unicode="&#x43;"/><glyph d="M188 0l-.00097656 1434h396c505.333 0 758-233 758-699 0-221.333-70.167-399.166-210.5-533.499s-328.166-201.5-563.499-201.5h-380zM355.999 1282v-1130h214c188 0 334.333 50.333 439 151s157 243.334 157 428.001c0 367.333-195.333 551-586 551h-224z" glyph-name="D" horiz-adv-x="1436" unicode="&#x44;"/><glyph d="M948 0h-760v1434h728v-152h-560v-477h518v-151h-518v-502h592v-152z" glyph-name="E" horiz-adv-x="1036" unicode="&#x45;"/><glyph d="M916 1282h-560v-496h518v-151h-518v-635h-168v1434h728v-152z" glyph-name="F" horiz-adv-x="1000" unicode="&#x46;"/><glyph d="M1260 98c-144-81.333-303.997-122-479.997-122-204.667 0-370.167 66-496.5 198s-189.5 306.667-189.5 524c0 222 70.167 404.167 210.5 546.5s318.166 213.5 533.499 213.5c156 0 287-25.333 393-76v-186c-116 73.333-253.333 110-412 110-160.667 0-292.334-55.333-395.001-166s-154-254-154-430c0-181.333 47.667-323.833 143-427.5s224.666-155.5 387.999-155.5c112 0 209 22.333 291 67v402h-314v152h482v-650z" glyph-name="G" horiz-adv-x="1405" unicode="&#x47;"/><glyph d="M1266 0h-168v654h-742v-654h-168v1434h168v-629h742v629h168v-1434z" glyph-name="H" horiz-adv-x="1454" unicode="&#x48;"/><glyph d="M496 1434v-144h-140v-1146h140v-144h-448v144h140v1146h-140v144h448z" glyph-name="I" horiz-adv-x="545" unicode="&#x49;"/><glyph d="M555 514c0-170-36-302.167-108-396.5s-168.333-141.5-289-141.5c-56 0-102 8-138 24v166c36-26 82.667-39 140-39 151.333 0 227 128.333 227 385v922h168v-920z" glyph-name="J" horiz-adv-x="731" unicode="&#x4a;"/><glyph d="M1186 0l-233.999-.00097656-554 656c-20.667 24.667-33.334 41.334-38.001 50.001h-4v-706h-168v1434h168v-674h4c9.33301 14.667 22 31 38 49l536 625h209l-615-688z" glyph-name="K" horiz-adv-x="1188" unicode="&#x4b;"/><glyph d="M932 0h-744v1434h168v-1282h576v-152z" glyph-name="L" horiz-adv-x="964" unicode="&#x4c;"/><glyph d="M1650 0l-167-.00097656v962c0 76 4.66699 169 14 279h-4c-16-64.667-30.333-111-43-139l-490-1102h-82l-489 1094c-14 32-28.333 81-43 147h-4c5.33301-57.333 8-151 8-281v-960h-162v1434h222l440-1000c34-76.667 56-134 66-172h6c28.667 78.667 51.667 137.334 69 176.001l449 996h210v-1434z" glyph-name="M" horiz-adv-x="1839" unicode="&#x4d;"/><glyph d="M1344 0l-206 .00195312-738 1143c-18.667 28.667-34 58.667-46 90h-6c5.33301-30.667 8-96.334 8-197.001v-1036h-168v1434h218l718-1125c30-46.667 49.333-78.667 58-96h4c-6.66699 41.333-10 111.666-10 210.999v1010h168v-1434z" glyph-name="N" horiz-adv-x="1532" unicode="&#x4e;"/><glyph d="M766-24c-203.333 0-366.168 66.999-488.501 200.999s-183.5 308.333-183.5 523c0 230.667 62.333 414.667 187 552s294.334 206 509.001 206c198 0 357.5-66.667 478.5-200s181.5-307.666 181.5-522.999c0-234-62-419-186-555s-290-204-498-204zM777.998 1306c-150.667 0-273-54.3311-367-162.998s-141-251.334-141-428.001 45.833-318.834 137.5-426.501 211.167-161.5 358.5-161.5c157.333 0 281.333 51.333 372 154s136 246.334 136 431.001c0 189.333-44 335.666-132 438.999s-209.333 155-364 155z" glyph-name="O" horiz-adv-x="1544" unicode="&#x4f;"/><glyph d="M356 542l.00097656-542h-168v1434h394c153.333 0 272.166-37.333 356.499-112s126.5-180 126.5-316-46.833-247.333-140.5-334-220.167-130-379.5-130h-189zM356.001 1282v-588h176c116 0 204.5 26.5 265.5 79.5s91.5 127.833 91.5 224.5c0 189.333-112 284-336 284h-197z" glyph-name="P" horiz-adv-x="1147" unicode="&#x50;"/><glyph d="M756-24c-42.667 0-86.001 4.16699-130.001 12.5s-86.667 21-128 38-80.833 38-118.5 63-71.834 54.167-102.501 87.5c-122 133.333-183 307.666-183 522.999 0 231.333 62 415.333 186 552 125.333 137.333 296.666 206 513.999 206 194.667 0 352.667-66.667 474-200s182-307.666 182-522.999c0-90.667-10.167-176.167-30.5-256.5s-51.166-152.833-92.499-217.5-93.333-119.5-156-164.5-136.667-77.167-222-96.5c34.667-37.333 67.167-70.333 97.5-99s60.666-52.834 90.999-72.501 61.833-34.5 94.5-44.5 68.667-15 108-15c10.667 0 22.334.5 35.001 1.5s25.5 2.66699 38.5 5 25.5 5 37.5 8 23 6.5 33 10.5v-162c-10.667-3.33301-22.667-6.16602-36-8.49902s-26.833-4.33301-40.5-6-27.167-3-40.5-4-25.666-1.5-36.999-1.5c-64 0-121.5 9.5-172.5 28.5s-98.667 45-143 78-87.166 71.5-128.499 115.5zM777.999 1306c-150.667 0-273-54.333-367-163s-141-251.334-141-428.001c0-176 45.667-318.333 137-427 92-107.333 211.667-161 359-161 157.333 0 281.333 51.333 372 154s136 246.334 136 431.001c0 190-44 336.333-132 439-88 103.333-209.333 155-364 155z" glyph-name="Q" horiz-adv-x="1544" unicode="&#x51;"/><glyph d="M1216 0l-199.999.00390625-240 402c-22 37.333-43.333 69.166-64 95.499s-41.834 47.833-63.501 64.5-45 28.834-70 36.501-53.167 11.5-84.5 11.5h-138v-610h-168v1434h428c62.667 0 120.5-7.83301 173.5-23.5s99-39.5 138-71.5 69.5-71.833 91.5-119.5 33-103.5 33-167.5c0-50-7.5-95.833-22.5-137.5s-36.333-78.834-64-111.501-61-60.5-100-83.5-82.833-40.833-131.5-53.5v-4c24-10.667 44.833-22.834 62.5-36.501s34.5-29.834 50.5-48.501 31.833-39.834 47.5-63.501l52.5-82.5zM356.001 1282v-520.001h228c42 0 80.833 6.33301 116.5 19s66.5 30.834 92.5 54.501 46.333 52.667 61 87 22 72.833 22 115.5c0 76.667-24.833 136.5-74.5 179.5s-121.5 64.5-215.5 64.5h-230z" glyph-name="R" horiz-adv-x="1225" unicode="&#x52;"/><glyph d="M121 58l-.00097656 198c22.667-20 49.834-38 81.501-54s65-29.5 100-40.5 70.167-19.5 105.5-25.5 68-9 98-9c103.333 0 180.5 19.167 231.5 57.5s76.5 93.5 76.5 165.5c0 38.667-8.5 72.334-25.5 101.001s-40.5 54.834-70.5 78.501-65.5 46.334-106.5 68.001l-132.5 68.5c-50 25.333-96.667 51-140 77s-81 54.667-113 86-57.167 66.833-75.5 106.5-27.5 86.167-27.5 139.5c0 65.333 14.333 122.166 43 170.499s66.334 88.166 113.001 119.499 99.834 54.666 159.501 69.999 120.5 23 182.5 23c141.333 0 244.333-17 309-51v-189c-84.667 58.667-193.334 88-326.001 88-36.667 0-73.334-3.83301-110.001-11.5s-69.334-20.167-98.001-37.5-52-39.666-70-66.999-27-60.666-27-99.999c0-36.667 6.83301-68.334 20.5-95.001s33.834-51 60.501-73 59.167-43.333 97.5-64 82.5-43.334 132.5-68.001c51.333-25.333 100-52 146-80s86.333-59 121-93 62.167-71.667 82.5-113 30.5-88.666 30.5-141.999c0-70.667-13.833-130.5-41.5-179.5s-65-88.833-112-119.5-101.167-52.834-162.5-66.501-126-20.5-194-20.5c-22.667 0-50.667 1.83301-84 5.5s-67.333 9-102 16-67.5 15.667-98.5 26-55.833 21.833-74.5 34.5z" glyph-name="S" horiz-adv-x="1088" unicode="&#x53;"/><glyph d="M1036 1282h-414v-1282h-168v1282h-413v152h995v-152z" glyph-name="T" horiz-adv-x="1073" unicode="&#x54;"/><glyph d="M1237 580c0-402.667-181.667-604-545-604-348 0-522 193.667-522 581v877h168v-866c0-294 124-441 372-441 239.333 0 359 142 359 426v881h168v-854z" glyph-name="U" horiz-adv-x="1407" unicode="&#x55;"/><glyph d="M1254 1434l-531.001-1434h-185l-520 1434h187l397-1137c12.667-36.667 22.334-79 29.001-127h4c5.33301 40 16.333 83 33 129l405 1135h181z" glyph-name="V" horiz-adv-x="1272" unicode="&#x56;"/><glyph d="M1888 1434l-404.998-1434h-197l-295 1048c-12.667 44.667-20.334 93.334-23.001 146.001h-4c-4-49.333-12.667-97.333-26-144l-297-1050h-195l-420 1434h185l305-1100c12.667-46 20.667-94 24-144h5c3.33301 35.333 13.666 83.333 30.999 144l317 1100h161l304-1108c10.667-38 18.667-82.667 24-134h4c2.66699 34.667 11.667 80.667 27 138l293 1104h182z" glyph-name="W" horiz-adv-x="1913" unicode="&#x57;"/><glyph d="M1178 0l-205-.00195312-330 549c-10 16.667-21 40.334-33 71.001h-4c-6.66699-15.333-18-39-34-71l-340-549h-206l480 721-442 713h206l293-504c19.333-33.333 36.333-66.666 51-99.999h4c21.333 44 40 78.667 56 104l305 500h193l-451-711z" glyph-name="X" horiz-adv-x="1208" unicode="&#x58;"/><glyph d="M1120 1434l-473.001-904v-530h-168v526l-461 908h191l321-648c4-8 15.667-37.333 35-88h3c6.66699 22.667 19.334 52 38.001 88l336 648h178z" glyph-name="Y" horiz-adv-x="1132" unicode="&#x59;"/><glyph d="M1124 1394l-840-1242h820v-152h-1071v47l833 1235h-766v152h1024v-40z" glyph-name="Z" horiz-adv-x="1168" unicode="&#x5a;"/><glyph d="M568-326h-368v1760h368v-119h-222v-1522h222v-119z" glyph-name="bracketleft" horiz-adv-x="618" unicode="&#x5b;"/><glyph d="M798-240h-151l-673 1674h155z" glyph-name="backslash" horiz-adv-x="776" unicode="&#x5c;"/><glyph d="M420-326h-367v119h221v1522h-221v119h367v-1760z" glyph-name="bracketright" horiz-adv-x="618" unicode="&#x5d;"/><glyph d="M1174 624h-150l-332 619h-6l-309-619h-147l422 834h65z" glyph-name="asciicircum" horiz-adv-x="1401" unicode="&#x5e;"/><glyph d="M850-297h-850v119h850v-119z" glyph-name="underscore" horiz-adv-x="850" unicode="&#x5f;"/><glyph d="M471 1218h-127l-262 328h168z" glyph-name="grave" horiz-adv-x="549" unicode="&#x60;"/><glyph d="M899 0l-164.001.00097656v160h-4c-71.333-122.667-176.333-184-315-184-102 0-181.833 27-239.5 81s-86.5 125.667-86.5 215c0 191.333 112.667 302.666 338 333.999l307 43c0 174-70.333 261-211 261-123.333 0-234.666-42-333.999-126v168c100.667 64 216.667 96 348 96 240.667 0 361-127.333 361-382v-666zM734.999 518.001l-247-34c-76-10.667-133.333-29.5-172-56.5s-58-74.833-58-143.5c0-50 17.833-90.833 53.5-122.5s83.167-47.5 142.5-47.5c81.333 0 148.5 28.5 201.5 85.5s79.5 129.167 79.5 216.5v102z" glyph-name="a" horiz-adv-x="1042" unicode="&#x61;"/><glyph d="M334 148h-4v-148h-164v1516h164v-672h4c80.667 136 198.667 204 354 204 131.333 0 234.166-45.833 308.499-137.5s111.5-214.5 111.5-368.5c0-171.333-41.667-308.5-125-411.5s-197.333-154.5-342-154.5c-135.333 0-237.666 57.333-306.999 172zM330 561l.00097656-143c0-84.667 27.5-156.5 82.5-215.5s124.833-88.5 209.5-88.5c99.333 0 177.166 38 233.499 114s84.5 181.667 84.5 317c0 114-26.333 203.333-79 268s-124 97-214 97c-95.333 0-172-33.167-230-99.5s-87-149.5-87-249.5z" glyph-name="b" horiz-adv-x="1204" unicode="&#x62;"/><glyph d="M864 47c-78.667-47.333-172-71-280-71-146 0-263.833 47.5-353.5 142.5s-134.5 218.167-134.5 369.5c0 168.667 48.333 304.167 145 406.5s225.667 153.5 387 153.5c90 0 169.333-16.667 238-50v-168c-76 53.333-157.333 80-244 80-104.667 0-190.5-37.5-257.5-112.5s-100.5-173.5-100.5-295.5c0-120 31.5-214.667 94.5-284s147.5-104 253.5-104c89.333 0 173.333 29.667 252 89v-156z" glyph-name="c" horiz-adv-x="946" unicode="&#x63;"/><glyph d="M1040 0h-164v174h-4c-76-132-193.333-198-352-198-128.667 0-231.5 45.833-308.5 137.5s-115.5 216.5-115.5 374.5c0 169.333 42.667 305 128 407s199 153 341 153c140.667 0 243-55.333 307-166h4v634h164v-1516zM876 463v150.999c0 82.667-27.333 152.667-82 210s-124 86-208 86c-100 0-178.667-36.667-236-110s-86-174.666-86-303.999c0-118 27.5-211.167 82.5-279.5s128.833-102.5 221.5-102.5c91.333 0 165.5 33 222.5 99s85.5 149.333 85.5 250z" glyph-name="d" horiz-adv-x="1206" unicode="&#x64;"/><glyph d="M989 471l-723.001.00097656c2.66699-114 33.334-202 92.001-264s139.334-93 242.001-93c115.333 0 221.333 38 318 114v-154c-90-65.333-209-98-357-98-144.667 0-258.334 46.5-341.001 139.5s-124 223.833-124 392.5c0 159.333 45.167 289.166 135.5 389.499s202.5 150.5 336.5 150.5 237.667-43.333 311-130 110-207 110-361v-86zM820.999 610.001c-.666992 94.667-23.5 168.332-68.5 220.999s-107.5 79-187.5 79c-77.333 0-143-27.667-197-83s-87.333-127.666-100-216.999h553z" glyph-name="e" horiz-adv-x="1071" unicode="&#x65;"/><glyph d="M672 1372c-32 18-68.333 27.001-109 27.001-114.667 0-172-72.333-172-217v-158h240v-140h-240v-884h-163v884h-175v140h175v166c0 107.333 31 192.166 93 254.499s139.333 93.5 232 93.5c50 0 89.667-6 119-18v-148z" glyph-name="f" horiz-adv-x="641" unicode="&#x66;"/><glyph d="M1040 82c0-376-179.999-564-539.999-564-126.667 0-237.334 24-332.001 72v164c115.333-64 225.333-96 330-96 252 0 378 134 378 402v112h-4c-78-130.667-195.333-196-352-196-127.333 0-229.833 45.5-307.5 136.5s-116.5 213.167-116.5 366.5c0 174 41.833 312.333 125.5 415s198.167 154 343.5 154c138 0 240.333-55.333 307-166h4v142h164v-942zM876.001 463l-.00097656 151.001c0 81.333-27.5 151-82.5 209s-123.5 87-205.5 87c-101.333 0-180.666-36.833-237.999-110.5s-86-176.834-86-309.501c0-114 27.5-205.167 82.5-273.5s127.833-102.5 218.5-102.5c92 0 166.833 32.667 224.5 98s86.5 149 86.5 251z" glyph-name="g" horiz-adv-x="1206" unicode="&#x67;"/><glyph d="M1016 0l-164 .00097656v590c0 213.333-79.333 320-238 320-80 0-147.333-30.833-202-92.5s-82-140.834-82-237.501v-580h-164v1516h164v-662h4c78.667 129.333 190.667 194 336 194 230.667 0 346-139 346-417v-631z" glyph-name="h" horiz-adv-x="1159" unicode="&#x68;"/><glyph d="M250 1284c-29.333 0-54.333 10-75 30s-31 45.333-31 76 10.333 56.167 31 76.5 45.667 30.5 75 30.5c30 0 55.5-10.167 76.5-30.5s31.5-45.833 31.5-76.5c0-29.333-10.5-54.333-31.5-75s-46.5-31-76.5-31zM330 0h-164v1024h164v-1024z" glyph-name="i" horiz-adv-x="496" unicode="&#x69;"/><glyph d="M330 43c0-168-33.833-297.5-101.5-388.5s-164.5-136.5-290.5-136.5c-46.667 0-92 10.667-136 32v153c49.333-30 96-45 140-45 149.333 0 224 119.333 224 358v1008h164v-981zM250 1284c-29.333 0-54.333 10-75 30s-31 45.333-31 76 10.333 56.167 31 76.5 45.667 30.5 75 30.5c30 0 55.5-10.167 76.5-30.5s31.5-45.833 31.5-76.5c0-29.333-10.5-54.333-31.5-75s-46.5-31-76.5-31z" glyph-name="j" horiz-adv-x="496" unicode="&#x6a;"/><glyph d="M1016 0h-230l-452 492h-4v-492h-164v1516h164v-961h4l430 469h215l-475-494z" glyph-name="k" horiz-adv-x="1018" unicode="&#x6b;"/><glyph d="M330 0h-164v1516h164v-1516z" glyph-name="l" horiz-adv-x="496" unicode="&#x6c;"/><glyph d="M1620 0h-164v588c0 113.333-17.5 195.333-52.5 246s-93.833 76-176.5 76c-70 0-129.5-32-178.5-96s-73.5-140.667-73.5-230v-584h-164v608c0 201.333-77.667 302-233 302-72 0-131.333-30.167-178-90.5s-70-138.833-70-235.5v-584h-164v1024h164v-162h4c72.667 124 178.667 186 318 186 70 0 131-19.5 183-58.5s87.667-90.167 107-153.5c76 141.333 189.333 212 340 212 225.333 0 338-139 338-417v-631z" glyph-name="m" horiz-adv-x="1764" unicode="&#x6d;"/><glyph d="M1016 0h-164v584c0 217.333-79.333 326-238 326-82 0-149.833-30.833-203.5-92.5s-80.5-139.5-80.5-233.5v-584h-164v1024h164v-170h4c77.333 129.333 189.333 194 336 194 112 0 197.667-36.167 257-108.5s89-176.833 89-313.5v-626z" glyph-name="n" horiz-adv-x="1159" unicode="&#x6e;"/><glyph d="M594-24c-151.333 0-272.169 47.832-362.502 143.499s-135.5 222.5-135.5 380.5c0 172 47 306.333 141 403s221 145 381 145c152.667 0 271.834-47 357.501-141s128.5-224.333 128.5-391c0-163.333-46.167-294.166-138.5-392.499s-216.166-147.5-371.499-147.5zM605.997 909.999c-105.333 0-188.667-35.834-250-107.501s-92-170.5-92-296.5c0-121.333 31-217 93-287s145-105 249-105c106 0 187.5 34.333 244.5 103s85.5 166.334 85.5 293.001c0 128-28.5 226.667-85.5 296s-138.5 104-244.5 104z" glyph-name="o" horiz-adv-x="1200" unicode="&#x6f;"/><glyph d="M334 148h-4v-619h-164v1495h164v-180h4c80.667 136 198.667 204 354 204 132 0 235-45.833 309-137.5s111-214.5 111-368.5c0-171.333-41.667-308.5-125-411.5s-197.333-154.5-342-154.5c-132.667 0-235 57.333-307 172zM330 561l.00097656-143c0-84.667 27.5-156.5 82.5-215.5s124.833-88.5 209.5-88.5c99.333 0 177.166 38 233.499 114s84.5 181.667 84.5 317c0 114-26.333 203.333-79 268s-124 97-214 97c-95.333 0-172-33.167-230-99.5s-87-149.5-87-249.5z" glyph-name="p" horiz-adv-x="1204" unicode="&#x70;"/><glyph d="M1040-471h-163.999v647h-4c-71.333-133.333-188-200-350-200-128.667 0-231.834 45.833-309.501 137.5s-116.5 216.5-116.5 374.5c0 170 42.667 305.833 128 407.5s200 152.5 344 152.5c140 0 241.333-55.333 304-166h4v142h164v-1495zM876.001 461l.00097656 149c0 84-27.5 155-82.5 213s-124.833 87-209.5 87c-98.667 0-176.667-36.5-234-109.5s-86-175.833-86-308.5c0-118 27.667-210.5 83-277.5s126.666-100.5 213.999-100.5c96 0 172.5 32.833 229.5 98.5s85.5 148.5 85.5 248.5z" glyph-name="q" horiz-adv-x="1206" unicode="&#x71;"/><glyph d="M700 858c-28.667 22-70.001 33-124.001 33-70 0-128.5-33-175.5-99s-70.5-156-70.5-270v-522h-164v1024h164v-211h4c23.333 72 59 128.167 107 168.5s101.667 60.5 161 60.5c42.667 0 75.334-4.66699 98.001-14v-170z" glyph-name="r" horiz-adv-x="712" unicode="&#x72;"/><glyph d="M104 37l-.00097656 176c89.333-66 187.666-99 294.999-99 144 0 216 48 216 144 0 27.333-6.16699 50.5-18.5 69.5s-29 35.833-50 50.5-45.667 27.834-74 39.501l-91.5 36.5c-45.333 18-85.166 36.167-119.499 54.5s-63 39-86 62-40.333 49.167-52 78.5-17.5 63.666-17.5 102.999c0 48 11 90.5 33 127.5s51.333 68 88 93 78.5 43.833 125.5 56.5 95.5 19 145.5 19c88.667 0 168-15.333 238-46v-166c-75.333 49.333-162 74-260 74-30.667 0-58.334-3.5-83.001-10.5s-45.834-16.833-63.501-29.5-31.334-27.834-41.001-45.501-14.5-37.167-14.5-58.5c0-26.667 4.83301-49 14.5-67s23.834-34 42.501-48 41.334-26.667 68.001-38l91-37c45.333-17.333 86-35.166 122-53.499s66.667-39 92-62 44.833-49.5 58.5-79.5 20.5-65.667 20.5-107c0-50.667-11.167-94.667-33.5-132s-52.166-68.333-89.499-93-80.333-43-129-55-99.667-18-153-18c-105.333 0-196.666 20.333-273.999 61z" glyph-name="s" horiz-adv-x="869" unicode="&#x73;"/><glyph d="M641 10c-38.667-21.333-89.667-32-153-32-179.333 0-269 100-269 300v606h-176v140h176v250l164 53v-303h258v-140h-258v-577c0-68.667 11.667-117.667 35-147s62-44 116-44c41.333 0 77 11.333 107 34v-140z" glyph-name="t" horiz-adv-x="694" unicode="&#x74;"/><glyph d="M994 0h-164v162h-4c-68-124-173.333-186-316-186-244 0-366 145.333-366 436v612h163v-586c0-216 82.667-324 248-324 80 0 145.833 29.5 197.5 88.5s77.5 136.167 77.5 231.5v590h164v-1024z" glyph-name="u" horiz-adv-x="1159" unicode="&#x75;"/><glyph d="M971 1024l-408.001-1024h-161l-388 1024h180l260-744c19.333-54.667 31.333-102.334 36-143.001h4c6.66699 51.333 17.334 97.666 32.001 138.999l272 748h173z" glyph-name="v" horiz-adv-x="981" unicode="&#x76;"/><glyph d="M1456 1024l-307.001-1024h-170l-211 733c-8 28-13.333 59.667-16 95h-4c-2-24-9-55-21-93l-229-735h-164l-310 1024h172l212-770c6.66699-23.333 11.334-54 14.001-92h8c2 29.333 8 60.666 18 93.999l236 768h150l212-772c6.66699-24.667 11.667-55.334 15-92.001h8c1.33301 26 7 56.667 17 92l208 772h162z" glyph-name="w" horiz-adv-x="1480" unicode="&#x77;"/><glyph d="M914 1024l-344-518 338-506h-191l-201 332c-12.667 20.667-27.667 46.667-45 78h-4c-3.33301-6-19-32-47-78l-205-332h-189l349 502-334 522h191l198-350 43-80h4l256 430h181z" glyph-name="x" horiz-adv-x="940" unicode="&#x78;"/><glyph d="M981 1024l-470.998-1188c-84-212-202-318-354-318-42.667 0-78.334 4.33301-107.001 13v147c35.333-12 67.666-18 96.999-18 82.667 0 144.667 49.333 186 148l82 194-400 1022h182l277-788c3.33301-10 10.333-36 21-78h6c3.33301 16 10 41.333 20 76l291 790h170z" glyph-name="y" horiz-adv-x="991" unicode="&#x79;"/><glyph d="M880 977l-606-837h600v-140h-841v51l606 833h-549v140h790v-47z" glyph-name="z" horiz-adv-x="926" unicode="&#x7a;"/><glyph d="M555-326c-204.667 2.66699-307.001 105.998-307.001 309.998v300c0 134.667-52 205.334-156 212.001v116c104 6.66699 156 78.667 156 216v292c0 206.667 102.333 311.334 307 314.001v-128c-106-2.66699-159-68.667-159-198v-293c0-140-50-226-150-258v-4c100-30 150-115.333 150-256v-289c0-74 11.833-126.833 35.5-158.5s64.834-48.167 123.501-49.5v-126z" glyph-name="braceleft" horiz-adv-x="618" unicode="&#x7b;"/><glyph d="M320-482h-148v2048h148v-2048z" glyph-name="bar" horiz-adv-x="490" unicode="&#x7c;"/><glyph d="M528 496c-104-6.66699-156-77.332-156-211.999v-300c0-204-102-307.333-306-310v126c58 1.33301 99.167 18 123.5 50s36.5 84.667 36.5 158v289c0 140.667 49.667 226 149 256v4c-99.333 32-149 118-149 258v293c0 129.333-53.333 195.333-160 198v128c204-2.66699 306-107.334 306-314.001v-292c0-137.333 52-209.333 156-216v-116z" glyph-name="braceright" horiz-adv-x="618" unicode="&#x7d;"/><glyph d="M1194 750c-4.66699-98.667-31.502-175-80.502-229s-115.5-81-199.5-81c-72.667 0-161 36.333-265 109-64.667 44.667-117.667 67-159 67-93.333 0-142-58.667-146-176h-135c3.33301 95.333 29.833 170.833 79.5 226.5s116.834 83.5 201.501 83.5c70.667 0 149-29.333 235-88 88-60 153.667-90 197-90 40.667 0 73.334 16.333 98.001 49s37.667 75.667 39 129h135z" glyph-name="asciitilde" horiz-adv-x="1401" unicode="&#x7e;"/><glyph glyph-name="nonbreakingspace" horiz-adv-x="561" unicode="&#xa0;"/><glyph d="M291 826c-30.667 0-56.834 10.667-78.501 32s-32.5 47.333-32.5 78 10.833 56.667 32.5 78 47.834 32 78.501 32c30 0 56-10.667 78-32s33-47.333 33-78-11-56.667-33-78-48-32-78-32zM379-406h-172l19 1030h134z" glyph-name="exclamdown" horiz-adv-x="582" unicode="&#xa1;"/><glyph d="M952 209c-64-39.333-137.667-62.334-221-69.001v-189h-125v191c-128.667 14.667-231.167 68.334-307.5 161.001s-114.5 208-114.5 346c0 146 38.167 268.167 114.5 366.5s178.833 159.833 307.5 184.5v213h125v-203c82-1.33301 155.667-18.333 221-51v-172c-67.333 47.333-141 73.333-221 78v-785c81.333 8 155 36.667 221 86v-157zM606 290.999v761c-79.333-20.667-141.5-65.167-186.5-133.5s-67.5-152.5-67.5-252.5 22.667-183 68-249 107.333-108 186-126z" glyph-name="cent" unicode="&#xa2;"/><glyph d="M1006 0h-900v135c145.333 46 218 150.333 218 313v187h-197v141h197v254c0 125.333 36.333 228 109 308s166.667 120 282 120c78 0 149-13.667 213-41v-155c-66.667 38-137 57-211 57-152.667 0-229-102.333-229-307v-236h296v-141h-296v-156c0-161.333-64.333-274.333-193-339h711v-140z" glyph-name="sterling" unicode="&#xa3;"/><glyph d="M1038 354l-92-96-137 138c-70-50.667-149.667-76-239-76-90.667 0-170.667 25.333-240 76l-138-138-92 96 138 134c-50.667 75.333-76 154.333-76 237 0 86 25.333 165 76 237l-138 136 92 96 138-137c73.333 51.333 153.333 77 240 77 86 0 165-25.667 237-77l139 137 92-96-137-136c52-74.667 78-153.667 78-237 0-80.667-26-159.667-78-237zM570 1002c-77.333 0-142.5-27-195.5-81s-79.5-118.667-79.5-194 26.833-140 80.5-194 118.5-81 194.5-81c75.333 0 140.166 27 194.499 81s81.5 118.667 81.5 194-27.667 140-83 194-119.666 81-192.999 81z" glyph-name="currency" horiz-adv-x="1138" unicode="&#xa4;"/><glyph d="M1042 1434l-356.001-656h285v-139h-334v-207h334v-139h-334v-293h-164v293h-344v139h344v207h-344v139h291l-352 656h192l250-514c18.667-38.667 34.334-75.667 47.001-111h4c8.66699 28 25 67 49 117l252 508h180z" glyph-name="yen" unicode="&#xa5;"/><glyph d="M320 715h-148v851h148v-851zM320-482h-148v852h148v-852z" glyph-name="brokenbar" horiz-adv-x="490" unicode="&#xa6;"/><glyph d="M658 416c60-49.333 90-111.331 90-185.998 0-88-33.333-159.333-100-214s-151.667-82-255-82c-87.333 0-167 18.667-239 56v158c86.667-49.333 170-74 250-74 56 0 99.333 13.167 130 39.5s46 59.5 46 99.5c0 35.333-11.833 65.166-35.5 89.499s-83.834 62.166-180.501 113.499c-155.333 81.333-233 187-233 317 0 108.667 49 190 147 244-70.667 55.333-106 129.666-106 222.999 0 84.667 31.167 154.334 93.5 209.001s144.5 82 246.5 82c86.667 0 159.667-14.333 219-43v-158c-67.333 41.333-141.666 62-222.999 62-112 0-168-48-168-144 0-36.667 13.5-70 40.5-100s94.833-71 203.5-123c148.667-71.333 223-169 223-293 0-113.333-49.667-205.333-149-276zM398 905.002c-67.333-34-101-87-101-159 0-48 18.833-90.167 56.5-126.5s103.5-75.5 197.5-117.5c58.667 45.333 88 102.666 88 171.999 0 48-17.5 88.833-52.5 122.5s-97.833 69.834-188.5 108.501z" glyph-name="section" horiz-adv-x="918" unicode="&#xa7;"/><glyph d="M610 1218c-26.667 0-49.668 9.33105-69.001 27.998s-29 42.334-29 71.001c0 28 9.33301 51.333 28 70s41.334 28 68.001 28c28 0 51.667-9.5 71-28.5s29-42.167 29-69.5-9.33301-50.666-28-69.999-42-29-70-29zM225.999 1218c-28 0-51.833 9.83105-71.5 29.498s-29.5 42.834-29.5 69.501c0 28 9.5 51.333 28.5 70s42.167 28 69.5 28 51-9.5 71-28.5 30-42.167 30-69.5-9.66699-50.666-29-69.999-42.333-29-69-29z" glyph-name="dieresis" horiz-adv-x="848" unicode="&#xa8;"/><glyph d="M912-33c-207.333 0-384.166 73.167-530.499 219.5s-219.5 323.166-219.5 530.499 73.167 384.166 219.5 530.499 323.166 219.5 530.499 219.5c206.667 0 383.167-73.167 529.5-219.5s219.5-323.166 219.5-530.499-73.167-384.166-219.5-530.499-322.833-219.5-529.5-219.5zM912 1379c-182.667 0-338.667-64.667-468-194s-194-285.333-194-468 64.667-338.5 194-467.5 285.333-193.5 468-193.5 338.5 64.5 467.5 193.5 193.5 284.833 193.5 467.5-64.5 338.667-193.5 468-284.833 194-467.5 194zM1213 266c-76-46-165.666-68.999-268.999-68.999-139.333 0-256 47.167-350 141.5s-141 212.166-141 353.499c0 164.667 48.167 296 144.5 394s221.5 147 375.5 147c88 0 166.667-17.667 236-53v-150c-63.333 48-148 72-254 72-104 0-189.833-35.5-257.5-106.5s-101.5-166.5-101.5-286.5c0-116 34.5-209.167 103.5-279.5s156.833-105.5 263.5-105.5c97.333 0 180.666 26 249.999 78v-136z" glyph-name="copyright" horiz-adv-x="1823" unicode="&#xa9;"/><glyph d="M688 717h-128.999v100h-4c-52.667-79.333-129.667-119-231-119-72.667 0-131.167 19.833-175.5 59.5s-66.5 90.5-66.5 152.5c0 134.667 82.667 213 248 235l229 31c0 112-50.333 168-151 168-90.667 0-175.334-28.667-254.001-86v128c74 46.667 162.667 70 266 70 84 0 149.667-24 197-72s71-115.333 71-202v-465zM559.001 1075l-180.002-25.001c-112-15.333-168-60-168-134 0-34 12.833-61.667 38.5-83s59.834-32 102.501-32c54.667 0 102.834 20.333 144.501 61s62.5 89.334 62.5 146.001v67z" glyph-name="ordfeminine" horiz-adv-x="803" unicode="&#xaa;"/><glyph d="M946 200h-168l-299 336 299 344h170l-307-344zM557 200h-166l-299 336 299 344h166l-303-344z" glyph-name="guillemotleft" horiz-adv-x="1036" unicode="&#xab;"/><glyph d="M1172 254h-132v430h-808v133h940v-563z" glyph-name="logicalnot" horiz-adv-x="1401" unicode="&#xac;"/><glyph d="M690 506h-546v129h546v-129z" glyph-name="sfthyphen" horiz-adv-x="819" unicode="&#xad;"/><glyph d="M912-33c-207.333 0-384.166 73.167-530.499 219.5s-219.5 323.166-219.5 530.499 73.167 384.166 219.5 530.499 323.166 219.5 530.499 219.5c206.667 0 383.167-73.167 529.5-219.5s219.5-323.166 219.5-530.499-73.167-384.166-219.5-530.499-322.833-219.5-529.5-219.5zM912 1379c-182.667 0-338.667-64.667-468-194s-194-285.333-194-468 64.667-338.5 194-467.5 285.333-193.5 468-193.5 338.5 64.5 467.5 193.5 193.5 284.833 193.5 467.5-64.5 338.667-193.5 468-284.833 194-467.5 194zM1276 248h-161.998l-104 229c-52.667 114.667-109.334 172-170.001 172h-88v-401h-133v954h268c111.333 0 197.166-23.333 257.499-70s90.5-110 90.5-190c0-65.333-21.167-121-63.5-167s-101.5-77-177.5-93v-4c52.667-11.333 105-70 157-176zM752.002 1088v-326.001h143c131.333 0 197 54.667 197 164 0 58.667-17.667 100.334-53 125.001s-91.333 37-168 37h-119z" glyph-name="registered" horiz-adv-x="1823" unicode="&#xae;"/><glyph d="M850 1396h-850v120h850v-120z" glyph-name="uni00AF" horiz-adv-x="850" unicode="&#xaf;"/><glyph d="M385 897c-76.667 0-141.999 27.167-195.999 81.5s-81 120.166-81 197.499c0 76.667 26.667 141.5 80 194.5s118.333 79.5 195 79.5c77.333 0 143.166-26.667 197.499-80s81.5-118 81.5-194c0-77.333-27-143.166-81-197.499s-119.333-81.5-196-81.5zM385.001 1333c-43.333 0-80.332-15.332-110.999-45.999s-46-67.667-46-111c0-44.667 15-82.834 45-114.501s66.667-47.5 110-47.5 80.666 16 111.999 48 47 70 47 114-15.333 81.167-46 111.5-67.667 45.5-111 45.5z" glyph-name="degree" horiz-adv-x="772" unicode="&#xb0;"/><glyph d="M1172 652h-404v-404h-131v404h-405v132h405v404h131v-404h404v-132zM1172 0h-940v133h940v-133z" glyph-name="plusminus" horiz-adv-x="1401" unicode="&#xb1;"/><glyph d="M658 884h-554.001v114l240 236c69.333 68 113.333 120.167 132 156.5s28 72.833 28 109.5c0 38.667-12.667 70.167-38 94.5s-58.666 36.5-99.999 36.5c-78.667 0-150.667-34-216-102v149c56 50.667 134.333 76 235 76 78.667 0 141-22 187-66s69-102 69-174c0-102-68.333-218-205-348l-164-156v-4h386v-122z" glyph-name="twosuperior" horiz-adv-x="750" unicode="&#xb2;"/><glyph d="M129 916l.00097656 142c68.667-50.667 141-76 217-76 53.333 0 95.333 12.5 126 37.5s46 58.833 46 101.5c0 94-73 141-219 141h-84v118h80c131.333 0 197 44.667 197 134 0 79.333-48 119-144 119-62.667 0-124.667-23-186-69v139c58 34 129 51 213 51 75.333 0 135.333-19.833 180-59.5s67-91.5 67-155.5c0-100.667-48.333-169-145-205v-4c118-28 177-95.333 177-202 0-78-28.333-141.667-85-191s-132.334-74-227.001-74c-91.333 0-162.333 17.667-213 53z" glyph-name="threesuperior" horiz-adv-x="750" unicode="&#xb3;"/><glyph d="M524 1546l-262-328h-127l223 328h166z" glyph-name="acute" horiz-adv-x="578" unicode="&#xb4;"/><glyph d="M1048 0l-170.001-.00097656c-15.333 48-23 104-23 168h-5c-56-127.333-149-191-279-191-111.333 0-190.666 41-237.999 123h-4v-496h-163v1420h163v-626c0-84.667 23-152 69-202s106-75 180-75c80.667 0 146.167 28.667 196.5 86s75.5 134.333 75.5 231v586h166v-759c0-125.333 10.667-213.666 32-264.999z" glyph-name="mu1" horiz-adv-x="1182" unicode="&#xb5;"/><glyph d="M834 1331l-128-.00097656v-1331h-106v1331h-158v-1331h-108v903c-72 0-131.667 25.333-179 76s-71 114.334-71 191.001c0 78 24.833 141.5 74.5 190.5s110.167 73.5 181.5 73.5h494v-103z" glyph-name="paragraph" horiz-adv-x="938" unicode="&#xb6;"/><glyph d="M223 510c-30.667 0-56.834 11-78.501 33s-32.5 48.333-32.5 79c0 31.333 10.833 58 32.5 80s47.834 33 78.501 33c31.333 0 58-11 80-33s33-48.667 33-80c0-30.667-11-57-33-79s-48.667-33-80-33z" glyph-name="periodcentered" horiz-adv-x="444" unicode="&#xb7;"/><glyph d="M391-256c0-117.333-91.666-176-274.999-176-25.333 0-47 .666992-65 2v90c28.667-4 52-6 70-6 94 0 141 30 141 90 0 52-43 78-129 78-6.66699 0-20.334-1.33301-41.001-4v182h108v-104c58.667 0 105.167-13.333 139.5-40s51.5-64 51.5-112z" glyph-name="cedilla" horiz-adv-x="420" unicode="&#xb8;"/><glyph d="M639 884h-504v112h185v594l-193-55v125l323 96v-760h189v-112z" glyph-name="onesuperior" horiz-adv-x="719" unicode="&#xb9;"/><glyph d="M436 696c-111.333 0-198.834 33.5-262.501 100.5s-95.5 157.833-95.5 272.5c0 120.667 34.167 215 102.5 283s158.833 102 271.5 102c108.667 0 194.334-33.167 257.001-99.5s94-156.5 94-270.5c0-118.667-33.167-213-99.5-283s-155.5-105-267.5-105zM443.999 1344c-70.667 0-126.833-23.999-168.5-71.999s-62.5-114.333-62.5-199c0-82.667 19.833-147.334 59.5-194.001s96.167-70 169.5-70c70 0 125.5 23.833 166.5 71.5s61.5 112.5 61.5 194.5c0 84-20.167 149.833-60.5 197.5s-95.5 71.5-165.5 71.5z" glyph-name="ordmasculine" horiz-adv-x="882" unicode="&#xba;"/><glyph d="M948 538l-301-338h-165l302 338-302 342h165zM559 538l-299-338h-170l308 338-308 342h170z" glyph-name="guillemotright" horiz-adv-x="1036" unicode="&#xbb;"/><glyph d="M1393 1434l-858-1434h-144l859 1434h143zM639 584h-504v112h185v594l-193-55v125l323 96v-760h189v-112zM1706 204h-110v-204h-132v204h-393v92l369 554h156v-537h110v-109zM1468 724l-4 .00097656c-8-20.667-20.667-45-38-73l-218-338h256v323c0 21.333 1.33301 50.666 4 87.999z" glyph-name="onequarter" horiz-adv-x="1856" unicode="&#xbc;"/><glyph d="M1393 1434l-858-1434h-144l859 1434h143zM639 584h-504v112h185v594l-193-55v125l323 96v-760h189v-112zM1748 1h-554.001v114l240 236c69.333 68 113.333 120.167 132 156.5s28 72.833 28 109.5c0 38.667-12.667 70.167-38 94.5s-58.666 36.5-99.999 36.5c-78.667 0-150.667-34-216-102v149c56 50.667 134.333 76 235 76 78.667 0 141-22 187-66s69-102 69-174c0-102-68.333-218-205-348l-164-156v-4h386v-122z" glyph-name="onehalf" horiz-adv-x="1906" unicode="&#xbd;"/><glyph d="M1464 1434l-858-1434h-144l859 1434h143zM129 616l.00097656 142c68.667-50.667 141-76 217-76 53.333 0 95.333 12.5 126 37.5s46 58.833 46 101.5c0 94-73 141-219 141h-84v118h80c131.333 0 197 44.667 197 134 0 79.333-48 119-144 119-62.667 0-124.667-23-186-69v139c58 34 129 51 213 51 75.333 0 135.333-19.833 180-59.5s67-91.5 67-155.5c0-100.667-48.333-169-145-205v-4c118-28 177-95.333 177-202 0-78-28.333-141.667-85-191s-132.334-74-227.001-74c-91.333 0-162.333 17.667-213 53zM1771 204h-110v-204h-132v204h-393v92l369 554h156v-537h110v-109zM1533 724l-4 .00097656c-8-20.667-20.667-45-38-73l-218-338h256v323c0 21.333 1.33301 50.666 4 87.999z" glyph-name="threequarters" horiz-adv-x="1950" unicode="&#xbe;"/><glyph d="M625 630c6-17.333 11.335-39.8301 16.002-67.4971s7-55.167 7-82.5c0-42.667-8.5-81.167-25.5-115.5s-38.167-66.5-63.5-96.5-53-58.833-83-86.5-57.667-55.667-83-84-46.5-58-63.5-89-25.5-65.167-25.5-102.5c0-32 6.16699-60.333 18.5-85s29.166-45.334 50.499-62.001 46-29.167 74-37.5 57.667-12.5 89-12.5c112.667 0 210.334 44.333 293.001 133v-176c-102-64-207.667-96-317-96-50.667 0-98.334 6.66699-143.001 20s-83.667 33.166-117 59.499-59.833 59.166-79.5 98.499-29.5 85-29.5 137c0 49.333 8.66699 93.333 26 132s39.166 74.167 65.499 106.5 54.833 62.5 85.5 90.5 59.167 55.833 85.5 83.5 48.166 56.5 65.499 86.5 26 63 26 99c0 30.667-3.66699 58.5-11 83.5s-14.666 46.167-21.999 63.5h161zM535.002 1046c29.333 0 55.333-10.667 78-32 22-20.667 33-46.667 33-78 0-30.667-11-56.667-33-78-22-22-48-33-78-33s-56 11-78 33c-22 21.333-33 47.333-33 78 0 31.333 11 57.333 33 78 22.667 21.333 48.667 32 78 32z" glyph-name="questiondown" horiz-adv-x="918" unicode="&#xbf;"/><glyph d="M1298 0h-186l-152 402h-608l-143-402h-187l550 1434h174zM905 553l-225 611c-7.33301 20-14.666 52-21.999 96h-4c-6.66699-40.667-14.334-72.667-23.001-96l-223-611h497zM758 1566h-127l-262 328h168z" glyph-name="Agrave" horiz-adv-x="1321" unicode="&#xc0;"/><glyph d="M1298 0h-186l-152 402h-608l-143-402h-187l550 1434h174zM905 553l-225 611c-7.33301 20-14.666 52-21.999 96h-4c-6.66699-40.667-14.334-72.667-23.001-96l-223-611h497zM867 1894l-262-328h-127l223 328h166z" glyph-name="Aacute" horiz-adv-x="1321" unicode="&#xc1;"/><glyph d="M1298 0h-186l-152 402h-608l-143-402h-187l550 1434h174zM905 553l-225 611c-7.33301 20-14.666 52-21.999 96h-4c-6.66699-40.667-14.334-72.667-23.001-96l-223-611h497zM927 1565h-122l-164 230-165-230h-113l215 332h133z" glyph-name="Acircumflex" horiz-adv-x="1321" unicode="&#xc2;"/><glyph d="M1298 0h-186l-152 402h-608l-143-402h-187l550 1434h174zM905 553l-225 611c-7.33301 20-14.666 52-21.999 96h-4c-6.66699-40.667-14.334-72.667-23.001-96l-223-611h497zM977 1803c0-70-16-127.167-48-171.5s-75.333-66.5-130-66.5c-47.333 0-101.333 17.333-162 52-51.333 28.667-91 43-119 43-58.667 0-88-37.667-88-113h-94c0 71.333 16 128.5 48 171.5s76.667 64.5 134 64.5c43.333 0 93-17.333 149-52 49.333-29.333 92-44 128-44 56 0 84 38.667 84 116h98z" glyph-name="Atilde" horiz-adv-x="1321" unicode="&#xc3;"/><glyph d="M1298 0h-186l-152 402h-608l-143-402h-187l550 1434h174zM905 553l-225 611c-7.33301 20-14.666 52-21.999 96h-4c-6.66699-40.667-14.334-72.667-23.001-96l-223-611h497zM840 1565c-26.667 0-49.668 9.33105-69.001 27.998s-29 42.334-29 71.001c0 28 9.33301 51.333 28 70s41.334 28 68.001 28c28 0 51.667-9.5 71-28.5s29-42.167 29-69.5-9.33301-50.666-28-69.999-42-29-70-29zM455.999 1565c-28 0-51.833 9.83105-71.5 29.498s-29.5 42.834-29.5 69.501c0 28 9.5 51.333 28.5 70s42.167 28 69.5 28 51-9.5 71-28.5 30-42.167 30-69.5-9.66699-50.666-29-69.999-42.333-29-69-29z" glyph-name="Adieresis" horiz-adv-x="1321" unicode="&#xc4;"/><glyph d="M1298 0l-186-.00097656-152 402h-608l-143-402h-187l529 1378c-67.333 34.667-101 89.334-101 164.001 0 59.333 20 107.333 60 144s90.667 55 152 55c58.667 0 106.667-18.167 144-54.5s56-82.5 56-138.5c0-74.667-32-130-96-166zM656 1659c-33.333 0-60.667-10.501-82-31.501s-32-47.5-32-79.5c0-76 38-114 114-114 32 0 59 11 81 33s33 49 33 81c0 32.667-11 59.334-33 80.001s-49 31-81 31zM904.999 552.998l-225 611c-7.33301 20-14.666 52-21.999 96h-4c-6.66699-40.667-14.334-72.667-23.001-96l-223-611h497z" glyph-name="Aring" horiz-adv-x="1321" unicode="&#xc5;"/><glyph d="M1667 0h-759v402h-510l-193-402h-195l700 1434h924v-152h-559v-477h519v-151h-519v-502h592v-152zM908 553v729h-95l-346-729h441z" glyph-name="AE" horiz-adv-x="1762" unicode="&#xc6;"/><glyph d="M1164 60c-106-56-238-83.9971-396-83.9971-204 0-367.333 65.667-490 197s-184 303.666-184 516.999c0 229.333 69 414.666 207 555.999s313 212 525 212c136 0 248.667-19.667 338-59v-179c-102.667 57.333-216 86-340 86-164.667 0-298.167-55-400.5-165s-153.5-257-153.5-441c0-174.667 47.833-313.834 143.5-417.501s221.167-155.5 376.5-155.5c144 0 268.667 32 374 96v-163zM960-255.997c0-117.333-91.666-176-274.999-176-25.333 0-47 .666992-65 2v90c28.667-4 52-6 70-6 94 0 141 30 141 90 0 52-43 78-129 78-6.66699 0-20.334-1.33301-41.001-4v182h108v-104c58.667 0 105.167-13.333 139.5-40s51.5-64 51.5-112z" glyph-name="Ccedilla" horiz-adv-x="1268" unicode="&#xc7;"/><glyph d="M948 0h-760v1434h728v-152h-560v-477h518v-151h-518v-502h592v-152zM703 1566h-127l-262 328h168z" glyph-name="Egrave" horiz-adv-x="1036" unicode="&#xc8;"/><glyph d="M948 0h-760v1434h728v-152h-560v-477h518v-151h-518v-502h592v-152zM803 1893l-262-328h-127l223 328h166z" glyph-name="Eacute" horiz-adv-x="1036" unicode="&#xc9;"/><glyph d="M948 0h-760v1434h728v-152h-560v-477h518v-151h-518v-502h592v-152zM827 1567h-122l-164 230-165-230h-113l215 332h133z" glyph-name="Ecircumflex" horiz-adv-x="1036" unicode="&#xca;"/><glyph d="M948 0h-760v1434h728v-152h-560v-477h518v-151h-518v-502h592v-152zM749 1566c-26.667 0-49.668 9.33105-69.001 27.998s-29 42.334-29 71.001c0 28 9.33301 51.333 28 70s41.334 28 68.001 28c28 0 51.667-9.5 71-28.5s29-42.167 29-69.5-9.33301-50.666-28-69.999-42-29-70-29zM364.999 1566c-28 0-51.833 9.83105-71.5 29.498s-29.5 42.834-29.5 69.501c0 28 9.5 51.333 28.5 70s42.167 28 69.5 28 51-9.5 71-28.5 30-42.167 30-69.5-9.66699-50.666-29-69.999-42.333-29-69-29z" glyph-name="Edieresis" horiz-adv-x="1036" unicode="&#xcb;"/><glyph d="M496 1434v-144h-140v-1146h140v-144h-448v144h140v1146h-140v144h448zM416 1566h-127l-262 328h168z" glyph-name="Igrave" horiz-adv-x="545" unicode="&#xcc;"/><glyph d="M496 1434v-144h-140v-1146h140v-144h-448v144h140v1146h-140v144h448zM509 1894l-262-328h-127l223 328h166z" glyph-name="Iacute" horiz-adv-x="545" unicode="&#xcd;"/><glyph d="M496 1434v-144h-140v-1146h140v-144h-448v144h140v1146h-140v144h448zM560 1567h-122l-164 230-165-230h-113l215 332h133z" glyph-name="Icircumflex" horiz-adv-x="545" unicode="&#xce;"/><glyph d="M496 1434v-144h-140v-1146h140v-144h-448v144h140v1146h-140v144h448zM470 1566c-26.667 0-49.668 9.33105-69.001 27.998s-29 42.334-29 71.001c0 28 9.33301 51.333 28 70s41.334 28 68.001 28c28 0 51.667-9.5 71-28.5s29-42.167 29-69.5-9.33301-50.666-28-69.999-42-29-70-29zM85.999 1566c-28 0-51.833 9.83105-71.5 29.498s-29.5 42.834-29.5 69.501c0 28 9.5 51.333 28.5 70s42.167 28 69.5 28 51-9.5 71-28.5 30-42.167 30-69.5-9.66699-50.666-29-69.999-42.333-29-69-29z" glyph-name="Idieresis" horiz-adv-x="545" unicode="&#xcf;"/><glyph d="M188 0l-.00097656 641.001h-160v155h160v638h396c505.333 0 758-233 758-699 0-222.667-70.167-400.834-210.5-534.501s-328.166-200.5-563.499-200.5h-380zM355.999 1282v-486.001h336v-155h-336v-489h214c188 0 334.333 50.333 439 151s157 243.334 157 428.001c0 367.333-195.333 551-586 551h-224z" glyph-name="Eth" horiz-adv-x="1436" unicode="&#xd0;"/><glyph d="M1344 0l-206 .00195312-738 1143c-18.667 28.667-34 58.667-46 90h-6c5.33301-30.667 8-96.334 8-197.001v-1036h-168v1434h218l718-1125c30-46.667 49.333-78.667 58-96h4c-6.66699 41.333-10 111.666-10 210.999v1010h168v-1434zM1113 1803c0-70-16-127.167-48-171.5s-75.333-66.5-130-66.5c-47.333 0-101.333 17.333-162 52-51.333 28.667-91 43-119 43-58.667 0-88-37.667-88-113h-94c0 71.333 16 128.5 48 171.5s76.667 64.5 134 64.5c43.333 0 93-17.333 149-52 49.333-29.333 92-44 128-44 56 0 84 38.667 84 116h98z" glyph-name="Ntilde" horiz-adv-x="1532" unicode="&#xd1;"/><glyph d="M766-24c-203.333 0-366.168 66.999-488.501 200.999s-183.5 308.333-183.5 523c0 230.667 62.333 414.667 187 552s294.334 206 509.001 206c198 0 357.5-66.667 478.5-200s181.5-307.666 181.5-522.999c0-234-62-419-186-555s-290-204-498-204zM777.998 1306c-150.667 0-273-54.3311-367-162.998s-141-251.334-141-428.001 45.833-318.834 137.5-426.501 211.167-161.5 358.5-161.5c157.333 0 281.333 51.333 372 154s136 246.334 136 431.001c0 189.333-44 335.666-132 438.999s-209.333 155-364 155zM879.998 1566h-127l-262 328h168z" glyph-name="Ograve" horiz-adv-x="1544" unicode="&#xd2;"/><glyph d="M766-24c-203.333 0-366.168 66.999-488.501 200.999s-183.5 308.333-183.5 523c0 230.667 62.333 414.667 187 552s294.334 206 509.001 206c198 0 357.5-66.667 478.5-200s181.5-307.666 181.5-522.999c0-234-62-419-186-555s-290-204-498-204zM777.998 1306c-150.667 0-273-54.3311-367-162.998s-141-251.334-141-428.001 45.833-318.834 137.5-426.501 211.167-161.5 358.5-161.5c157.333 0 281.333 51.333 372 154s136 246.334 136 431.001c0 189.333-44 335.666-132 438.999s-209.333 155-364 155zM1028 1894l-262-328h-127l223 328h166z" glyph-name="Oacute" horiz-adv-x="1544" unicode="&#xd3;"/><glyph d="M766-24c-203.333 0-366.168 66.999-488.501 200.999s-183.5 308.333-183.5 523c0 230.667 62.333 414.667 187 552s294.334 206 509.001 206c198 0 357.5-66.667 478.5-200s181.5-307.666 181.5-522.999c0-234-62-419-186-555s-290-204-498-204zM777.998 1306c-150.667 0-273-54.3311-367-162.998s-141-251.334-141-428.001 45.833-318.834 137.5-426.501 211.167-161.5 358.5-161.5c157.333 0 281.333 51.333 372 154s136 246.334 136 431.001c0 189.333-44 335.666-132 438.999s-209.333 155-364 155zM1063 1566h-122l-164 230-165-230h-113l215 332h133z" glyph-name="Ocircumflex" horiz-adv-x="1544" unicode="&#xd4;"/><glyph d="M766-24c-203.333 0-366.168 66.999-488.501 200.999s-183.5 308.333-183.5 523c0 230.667 62.333 414.667 187 552s294.334 206 509.001 206c198 0 357.5-66.667 478.5-200s181.5-307.666 181.5-522.999c0-234-62-419-186-555s-290-204-498-204zM777.998 1306c-150.667 0-273-54.3311-367-162.998s-141-251.334-141-428.001 45.833-318.834 137.5-426.501 211.167-161.5 358.5-161.5c157.333 0 281.333 51.333 372 154s136 246.334 136 431.001c0 189.333-44 335.666-132 438.999s-209.333 155-364 155zM1103 1802c0-70-16-127.167-48-171.5s-75.333-66.5-130-66.5c-47.333 0-101.333 17.333-162 52-51.333 28.667-91 43-119 43-58.667 0-88-37.667-88-113h-94c0 71.333 16 128.5 48 171.5s76.667 64.5 134 64.5c43.333 0 93-17.333 149-52 49.333-29.333 92-44 128-44 56 0 84 38.667 84 116h98z" glyph-name="Otilde" horiz-adv-x="1544" unicode="&#xd5;"/><glyph d="M766-24c-203.333 0-366.168 66.999-488.501 200.999s-183.5 308.333-183.5 523c0 230.667 62.333 414.667 187 552s294.334 206 509.001 206c198 0 357.5-66.667 478.5-200s181.5-307.666 181.5-522.999c0-234-62-419-186-555s-290-204-498-204zM777.998 1306c-150.667 0-273-54.3311-367-162.998s-141-251.334-141-428.001 45.833-318.834 137.5-426.501 211.167-161.5 358.5-161.5c157.333 0 281.333 51.333 372 154s136 246.334 136 431.001c0 189.333-44 335.666-132 438.999s-209.333 155-364 155zM967.998 1563c-26.667 0-49.668 9.33105-69.001 27.998s-29 42.334-29 71.001c0 28 9.33301 51.333 28 70s41.334 28 68.001 28c28 0 51.667-9.5 71-28.5s29-42.167 29-69.5-9.33301-50.666-28-69.999-42-29-70-29zM583.997 1563c-28 0-51.833 9.83105-71.5 29.498s-29.5 42.834-29.5 69.501c0 28 9.5 51.333 28.5 70s42.167 28 69.5 28 51-9.5 71-28.5 30-42.167 30-69.5-9.66699-50.666-29-69.999-42.333-29-69-29z" glyph-name="Odieresis" horiz-adv-x="1544" unicode="&#xd6;"/><glyph d="M1134 258l-94-94-340 340-338-340-94 94 340 338-340 340 94 94 338-340 340 340 94-94-340-340z" glyph-name="multiply" horiz-adv-x="1401" unicode="&#xd7;"/><glyph d="M324 131l-152-182-78 65 158 191c-105.333 130-158 295-158 495 0 228.667 62.167 412.167 186.5 550.5s294.166 207.5 509.499 207.5c156 0 290-43 402-129l135 162 78-63-139-166c122.667-133.333 184-309 184-527 0-234-62-419-186-555s-290-204-498-204c-177.333 0-324.666 51.667-441.999 155zM1090 1204c-84 68-188 101.999-312 101.999-151.333 0-273.833-54.667-367.5-164s-140.5-251.666-140.5-426.999c0-148.667 32.667-273 98-373zM1157 1130l-724.999-865.999c87.333-91.333 198.666-137 333.999-137 157.333 0 281.333 51.5 372 154.5s136 246.5 136 430.5c0 173.333-39 312.666-117 417.999z" glyph-name="Oslash" horiz-adv-x="1544" unicode="&#xd8;"/><glyph d="M1237 580c0-402.667-181.667-604-545-604-348 0-522 193.667-522 581v877h168v-866c0-294 124-441 372-441 239.333 0 359 142 359 426v881h168v-854zM830 1566h-127l-262 328h168z" glyph-name="Ugrave" horiz-adv-x="1407" unicode="&#xd9;"/><glyph d="M1237 580c0-402.667-181.667-604-545-604-348 0-522 193.667-522 581v877h168v-866c0-294 124-441 372-441 239.333 0 359 142 359 426v881h168v-854zM960 1893l-262-328h-127l223 328h166z" glyph-name="Uacute" horiz-adv-x="1407" unicode="&#xda;"/><glyph d="M1237 580c0-402.667-181.667-604-545-604-348 0-522 193.667-522 581v877h168v-866c0-294 124-441 372-441 239.333 0 359 142 359 426v881h168v-854zM987 1567h-122l-164 230-165-230h-113l215 332h133z" glyph-name="Ucircumflex" horiz-adv-x="1407" unicode="&#xdb;"/><glyph d="M1237 580c0-402.667-181.667-604-545-604-348 0-522 193.667-522 581v877h168v-866c0-294 124-441 372-441 239.333 0 359 142 359 426v881h168v-854zM895 1567c-26.667 0-49.668 9.33105-69.001 27.998s-29 42.334-29 71.001c0 28 9.33301 51.333 28 70s41.334 28 68.001 28c28 0 51.667-9.5 71-28.5s29-42.167 29-69.5-9.33301-50.666-28-69.999-42-29-70-29zM510.999 1567c-28 0-51.833 9.83105-71.5 29.498s-29.5 42.834-29.5 69.501c0 28 9.5 51.333 28.5 70s42.167 28 69.5 28 51-9.5 71-28.5 30-42.167 30-69.5-9.66699-50.666-29-69.999-42.333-29-69-29z" glyph-name="Udieresis" horiz-adv-x="1407" unicode="&#xdc;"/><glyph d="M1120 1434l-473.001-904v-530h-168v526l-461 908h191l321-648c4-8 15.667-37.333 35-88h3c6.66699 22.667 19.334 52 38.001 88l336 648h178zM830.999 1894l-262-328h-127l223 328h166z" glyph-name="Yacute" horiz-adv-x="1132" unicode="&#xdd;"/><glyph d="M356 318l-.00097656-318h-168v1434h168v-226h226c154.667 0 273.834-37.167 357.501-111.5s125.5-179.833 125.5-316.5c0-136-47.167-247-141.5-333s-221.5-129-381.5-129h-186zM355.999 1057l.00097656-588h176c115.333 0 203.666 26 264.999 78s92 126.333 92 223c0 191.333-112 287-336 287h-197z" glyph-name="Thorn" horiz-adv-x="1147" unicode="&#xde;"/><glyph d="M461 2v160.002c50-32 106.667-48 170-48 72.667 0 131.667 24.5 177 73.5s68 114.833 68 197.5c0 100-33.333 181.167-100 243.5s-159.334 100.166-278.001 113.499v130c78.667 13.333 143.334 47.666 194.001 102.999s76 121 76 197c0 72-18.333 127.833-55 167.5s-87.334 59.5-152.001 59.5c-154 0-231-103-231-309v-1090h-164v1114c0 128 36.667 230.667 110 308s172 116 296 116c110.667 0 199-31.667 265-95s99-147 99-251c0-84.667-25-160.667-75-228s-115-114-195-140v-5c252-50 378-192 378-426 0-118-37-217-111-297s-172-120-294-120c-67.333 0-126.666 8.66699-177.999 26z" glyph-name="germandbls" horiz-adv-x="1114" unicode="&#xdf;"/><glyph d="M899 0l-164.001.00097656v160h-4c-71.333-122.667-176.333-184-315-184-102 0-181.833 27-239.5 81s-86.5 125.667-86.5 215c0 191.333 112.667 302.666 338 333.999l307 43c0 174-70.333 261-211 261-123.333 0-234.666-42-333.999-126v168c100.667 64 216.667 96 348 96 240.667 0 361-127.333 361-382v-666zM734.999 518.001l-247-34c-76-10.667-133.333-29.5-172-56.5s-58-74.833-58-143.5c0-50 17.833-90.833 53.5-122.5s83.167-47.5 142.5-47.5c81.333 0 148.5 28.5 201.5 85.5s79.5 129.167 79.5 216.5v102zM673.999 1218h-127l-262 328h168z" glyph-name="agrave" horiz-adv-x="1042" unicode="&#xe0;"/><glyph d="M899 0l-164.001.00097656v160h-4c-71.333-122.667-176.333-184-315-184-102 0-181.833 27-239.5 81s-86.5 125.667-86.5 215c0 191.333 112.667 302.666 338 333.999l307 43c0 174-70.333 261-211 261-123.333 0-234.666-42-333.999-126v168c100.667 64 216.667 96 348 96 240.667 0 361-127.333 361-382v-666zM734.999 518.001l-247-34c-76-10.667-133.333-29.5-172-56.5s-58-74.833-58-143.5c0-50 17.833-90.833 53.5-122.5s83.167-47.5 142.5-47.5c81.333 0 148.5 28.5 201.5 85.5s79.5 129.167 79.5 216.5v102zM756.999 1546l-262-328h-127l223 328h166z" glyph-name="aacute" horiz-adv-x="1042" unicode="&#xe1;"/><glyph d="M899 0l-164.001.00097656v160h-4c-71.333-122.667-176.333-184-315-184-102 0-181.833 27-239.5 81s-86.5 125.667-86.5 215c0 191.333 112.667 302.666 338 333.999l307 43c0 174-70.333 261-211 261-123.333 0-234.666-42-333.999-126v168c100.667 64 216.667 96 348 96 240.667 0 361-127.333 361-382v-666zM734.999 518.001l-247-34c-76-10.667-133.333-29.5-172-56.5s-58-74.833-58-143.5c0-50 17.833-90.833 53.5-122.5s83.167-47.5 142.5-47.5c81.333 0 148.5 28.5 201.5 85.5s79.5 129.167 79.5 216.5v102zM805.999 1218h-122l-164 230-165-230h-113l215 332h133z" glyph-name="acircumflex" horiz-adv-x="1042" unicode="&#xe2;"/><glyph d="M899 0l-164.001.00097656v160h-4c-71.333-122.667-176.333-184-315-184-102 0-181.833 27-239.5 81s-86.5 125.667-86.5 215c0 191.333 112.667 302.666 338 333.999l307 43c0 174-70.333 261-211 261-123.333 0-234.666-42-333.999-126v168c100.667 64 216.667 96 348 96 240.667 0 361-127.333 361-382v-666zM734.999 518.001l-247-34c-76-10.667-133.333-29.5-172-56.5s-58-74.833-58-143.5c0-50 17.833-90.833 53.5-122.5s83.167-47.5 142.5-47.5c81.333 0 148.5 28.5 201.5 85.5s79.5 129.167 79.5 216.5v102zM843.999 1458c0-70-16-127.167-48-171.5s-75.333-66.5-130-66.5c-47.333 0-101.333 17.333-162 52-51.333 28.667-91 43-119 43-58.667 0-88-37.667-88-113h-94c0 71.333 16 128.5 48 171.5s76.667 64.5 134 64.5c43.333 0 93-17.333 149-52 49.333-29.333 92-44 128-44 56 0 84 38.667 84 116h98z" glyph-name="atilde" horiz-adv-x="1042" unicode="&#xe3;"/><glyph d="M899 0l-164.001.00097656v160h-4c-71.333-122.667-176.333-184-315-184-102 0-181.833 27-239.5 81s-86.5 125.667-86.5 215c0 191.333 112.667 302.666 338 333.999l307 43c0 174-70.333 261-211 261-123.333 0-234.666-42-333.999-126v168c100.667 64 216.667 96 348 96 240.667 0 361-127.333 361-382v-666zM734.999 518.001l-247-34c-76-10.667-133.333-29.5-172-56.5s-58-74.833-58-143.5c0-50 17.833-90.833 53.5-122.5s83.167-47.5 142.5-47.5c81.333 0 148.5 28.5 201.5 85.5s79.5 129.167 79.5 216.5v102zM707.999 1218c-26.667 0-49.668 9.33105-69.001 27.998s-29 42.334-29 71.001c0 28 9.33301 51.333 28 70s41.334 28 68.001 28c28 0 51.667-9.5 71-28.5s29-42.167 29-69.5-9.33301-50.666-28-69.999-42-29-70-29zM323.998 1218c-28 0-51.833 9.83105-71.5 29.498s-29.5 42.834-29.5 69.501c0 28 9.5 51.333 28.5 70s42.167 28 69.5 28 51-9.5 71-28.5 30-42.167 30-69.5-9.66699-50.666-29-69.999-42.333-29-69-29z" glyph-name="adieresis" horiz-adv-x="1042" unicode="&#xe4;"/><glyph d="M899 0l-164.001.00097656v160h-4c-71.333-122.667-176.333-184-315-184-102 0-181.833 27-239.5 81s-86.5 125.667-86.5 215c0 191.333 112.667 302.666 338 333.999l307 43c0 174-70.333 261-211 261-123.333 0-234.666-42-333.999-126v168c100.667 64 216.667 96 348 96 240.667 0 361-127.333 361-382v-666zM734.999 518.001l-247-34c-76-10.667-133.333-29.5-172-56.5s-58-74.833-58-143.5c0-50 17.833-90.833 53.5-122.5s83.167-47.5 142.5-47.5c81.333 0 148.5 28.5 201.5 85.5s79.5 129.167 79.5 216.5v102zM516.999 1176c-58 0-106.166 17.5-144.499 52.5s-57.5 80.833-57.5 137.5c0 60 19.667 108 59 144s89.333 54 150 54c59.333 0 108-18 146-54s57-82 57-138-20.333-102.667-61-140-90.334-56-149.001-56zM517 1483c-32 0-58.667-10.833-80-32.5s-32-48.5-32-80.5c0-74.667 37.333-112 112-112 33.333 0 61 10.667 83 32s33 48 33 80c0 32.667-11 59.667-33 81s-49.667 32-83 32z" glyph-name="aring" horiz-adv-x="1042" unicode="&#xe5;"/><glyph d="M1622 471h-725c2-114 32.333-202 91-264s139-93 241-93c118 0 225 38 321 114v-154c-88-65.333-207.333-98-358-98-180 0-307.667 76.333-383 229h-4c-96.667-152.667-225.667-229-387-229-102 0-182.167 26.833-240.5 80.5s-87.5 125.5-87.5 215.5c0 200 127.667 308 383 324l262 16c0 198.667-71.667 298-215 298-116.667 0-226.667-40.667-330-122v164c98.667 64 214.667 96 348 96 154.667 0 254.667-66.667 300-200h4c77.333 133.333 196 200 356 200 134.667 0 239-43.5 313-130.5s111-207.833 111-362.5v-84zM1454 610c-1.33301 96-24.1689 170.001-68.502 222.001s-106.166 78-185.499 78c-77.333 0-143.666-27.333-198.999-82s-89.333-127.334-102-218.001h555zM734.997 410.001l.00097656 62.999-203-12c-92.667-5.33301-161.834-21.666-207.501-48.999s-68.5-72.666-68.5-135.999c0-48.667 17.667-87.834 53-117.501s83-44.5 143-44.5c79.333 0 146.333 28.167 201 84.5s82 126.833 82 211.5z" glyph-name="ae" horiz-adv-x="1704" unicode="&#xe6;"/><glyph d="M864 47c-78.667-47.333-172-71-280-71-146 0-263.833 47.5-353.5 142.5s-134.5 218.167-134.5 369.5c0 168.667 48.333 304.167 145 406.5s225.667 153.5 387 153.5c90 0 169.333-16.667 238-50v-168c-76 53.333-157.333 80-244 80-104.667 0-190.5-37.5-257.5-112.5s-100.5-173.5-100.5-295.5c0-120 31.5-214.667 94.5-284s147.5-104 253.5-104c89.333 0 173.333 29.667 252 89v-156zM778-256c0-117.333-91.666-176-274.999-176-25.333 0-47 .666992-65 2v90c28.667-4 52-6 70-6 94 0 141 30 141 90 0 52-43 78-129 78-6.66699 0-20.334-1.33301-41.001-4v182h108v-104c58.667 0 105.167-13.333 139.5-40s51.5-64 51.5-112z" glyph-name="ccedilla" horiz-adv-x="946" unicode="&#xe7;"/><glyph d="M989 471l-723.001.00097656c2.66699-114 33.334-202 92.001-264s139.334-93 242.001-93c115.333 0 221.333 38 318 114v-154c-90-65.333-209-98-357-98-144.667 0-258.334 46.5-341.001 139.5s-124 223.833-124 392.5c0 159.333 45.167 289.166 135.5 389.499s202.5 150.5 336.5 150.5 237.667-43.333 311-130 110-207 110-361v-86zM820.999 610.001c-.666992 94.667-23.5 168.332-68.5 220.999s-107.5 79-187.5 79c-77.333 0-143-27.667-197-83s-87.333-127.666-100-216.999h553zM724.999 1218h-127l-262 328h168z" glyph-name="egrave" horiz-adv-x="1071" unicode="&#xe8;"/><glyph d="M989 471l-723.001.00097656c2.66699-114 33.334-202 92.001-264s139.334-93 242.001-93c115.333 0 221.333 38 318 114v-154c-90-65.333-209-98-357-98-144.667 0-258.334 46.5-341.001 139.5s-124 223.833-124 392.5c0 159.333 45.167 289.166 135.5 389.499s202.5 150.5 336.5 150.5 237.667-43.333 311-130 110-207 110-361v-86zM820.999 610.001c-.666992 94.667-23.5 168.332-68.5 220.999s-107.5 79-187.5 79c-77.333 0-143-27.667-197-83s-87.333-127.666-100-216.999h553zM794.999 1546l-262-328h-127l223 328h166z" glyph-name="eacute" horiz-adv-x="1071" unicode="&#xe9;"/><glyph d="M989 471l-723.001.00097656c2.66699-114 33.334-202 92.001-264s139.334-93 242.001-93c115.333 0 221.333 38 318 114v-154c-90-65.333-209-98-357-98-144.667 0-258.334 46.5-341.001 139.5s-124 223.833-124 392.5c0 159.333 45.167 289.166 135.5 389.499s202.5 150.5 336.5 150.5 237.667-43.333 311-130 110-207 110-361v-86zM820.999 610.001c-.666992 94.667-23.5 168.332-68.5 220.999s-107.5 79-187.5 79c-77.333 0-143-27.667-197-83s-87.333-127.666-100-216.999h553zM839.999 1218h-122l-164 230-165-230h-113l215 332h133z" glyph-name="ecircumflex" horiz-adv-x="1071" unicode="&#xea;"/><glyph d="M989 471l-723.001.00097656c2.66699-114 33.334-202 92.001-264s139.334-93 242.001-93c115.333 0 221.333 38 318 114v-154c-90-65.333-209-98-357-98-144.667 0-258.334 46.5-341.001 139.5s-124 223.833-124 392.5c0 159.333 45.167 289.166 135.5 389.499s202.5 150.5 336.5 150.5 237.667-43.333 311-130 110-207 110-361v-86zM820.999 610.001c-.666992 94.667-23.5 168.332-68.5 220.999s-107.5 79-187.5 79c-77.333 0-143-27.667-197-83s-87.333-127.666-100-216.999h553zM745.999 1218c-26.667 0-49.668 9.33105-69.001 27.998s-29 42.334-29 71.001c0 28 9.33301 51.333 28 70s41.334 28 68.001 28c28 0 51.667-9.5 71-28.5s29-42.167 29-69.5-9.33301-50.666-28-69.999-42-29-70-29zM361.998 1218c-28 0-51.833 9.83105-71.5 29.498s-29.5 42.834-29.5 69.501c0 28 9.5 51.333 28.5 70s42.167 28 69.5 28 51-9.5 71-28.5 30-42.167 30-69.5-9.66699-50.666-29-69.999-42.333-29-69-29z" glyph-name="edieresis" horiz-adv-x="1071" unicode="&#xeb;"/><glyph d="M330 0h-164v1024h164v-1024zM369 1218h-127l-262 328h168z" glyph-name="igrave" horiz-adv-x="496" unicode="&#xec;"/><glyph d="M330 0h-164v1024h164v-1024zM477 1546l-262-328h-127l223 328h166z" glyph-name="iacute" horiz-adv-x="496" unicode="&#xed;"/><glyph d="M330 0h-164v1024h164v-1024zM519 1218h-122l-164 230-165-230h-113l215 332h133z" glyph-name="icircumflex" horiz-adv-x="496" unicode="&#xee;"/><glyph d="M330 0h-164v1024h164v-1024zM430 1218c-26.667 0-49.668 9.33105-69.001 27.998s-29 42.334-29 71.001c0 28 9.33301 51.333 28 70s41.334 28 68.001 28c28 0 51.667-9.5 71-28.5s29-42.167 29-69.5-9.33301-50.666-28-69.999-42-29-70-29zM45.999 1218c-28 0-51.833 9.83105-71.5 29.498s-29.5 42.834-29.5 69.501c0 28 9.5 51.333 28.5 70s42.167 28 69.5 28 51-9.5 71-28.5 30-42.167 30-69.5-9.66699-50.666-29-69.999-42.333-29-69-29z" glyph-name="idieresis" horiz-adv-x="496" unicode="&#xef;"/><glyph d="M786 968l3.99902 3.00098c-60 108-126 196.667-198 266l-299-151-51 98 270 131c-78.667 70-166.667 137-264 201h221c50-34.667 107.333-80 172-136l289 144 55-94-264-130c218-204.667 327-462.667 327-774 0-160-43-291.333-129-394s-203-154-351-154-263.667 46.667-347 140-125 220.666-125 381.999c0 162 43.333 293.5 130 394.5s203.334 151.5 350.001 151.5c82 0 152-26 210-78zM581.999 910.001c-98.667 0-176.333-36.167-233-108.5s-85-170.833-85-295.5c0-120.667 27.667-216.167 83-286.5s132.333-105.5 231-105.5c92.667 0 166.167 36 220.5 108s81.5 168 81.5 288c0 266.667-99.333 400-298 400z" glyph-name="eth" horiz-adv-x="1145" unicode="&#xf0;"/><glyph d="M1016 0h-164v584c0 217.333-79.333 326-238 326-82 0-149.833-30.833-203.5-92.5s-80.5-139.5-80.5-233.5v-584h-164v1024h164v-170h4c77.333 129.333 189.333 194 336 194 112 0 197.667-36.167 257-108.5s89-176.833 89-313.5v-626zM908 1458c0-70-16-127.167-48-171.5s-75.333-66.5-130-66.5c-47.333 0-101.333 17.333-162 52-51.333 28.667-91 43-119 43-58.667 0-88-37.667-88-113h-94c0 71.333 16 128.5 48 171.5s76.667 64.5 134 64.5c43.333 0 93-17.333 149-52 49.333-29.333 92-44 128-44 56 0 84 38.667 84 116h98z" glyph-name="ntilde" horiz-adv-x="1159" unicode="&#xf1;"/><glyph d="M594-24c-151.333 0-272.169 47.832-362.502 143.499s-135.5 222.5-135.5 380.5c0 172 47 306.333 141 403s221 145 381 145c152.667 0 271.834-47 357.501-141s128.5-224.333 128.5-391c0-163.333-46.167-294.166-138.5-392.499s-216.166-147.5-371.499-147.5zM605.997 909.999c-105.333 0-188.667-35.834-250-107.501s-92-170.5-92-296.5c0-121.333 31-217 93-287s145-105 249-105c106 0 187.5 34.333 244.5 103s85.5 166.334 85.5 293.001c0 128-28.5 226.667-85.5 296s-138.5 104-244.5 104zM746.996 1218h-127l-262 328h168z" glyph-name="ograve" horiz-adv-x="1200" unicode="&#xf2;"/><glyph d="M594-24c-151.333 0-272.169 47.832-362.502 143.499s-135.5 222.5-135.5 380.5c0 172 47 306.333 141 403s221 145 381 145c152.667 0 271.834-47 357.501-141s128.5-224.333 128.5-391c0-163.333-46.167-294.166-138.5-392.499s-216.166-147.5-371.499-147.5zM605.997 909.999c-105.333 0-188.667-35.834-250-107.501s-92-170.5-92-296.5c0-121.333 31-217 93-287s145-105 249-105c106 0 187.5 34.333 244.5 103s85.5 166.334 85.5 293.001c0 128-28.5 226.667-85.5 296s-138.5 104-244.5 104zM845.996 1546l-262-328h-127l223 328h166z" glyph-name="oacute" horiz-adv-x="1200" unicode="&#xf3;"/><glyph d="M594-24c-151.333 0-272.169 47.832-362.502 143.499s-135.5 222.5-135.5 380.5c0 172 47 306.333 141 403s221 145 381 145c152.667 0 271.834-47 357.501-141s128.5-224.333 128.5-391c0-163.333-46.167-294.166-138.5-392.499s-216.166-147.5-371.499-147.5zM605.997 909.999c-105.333 0-188.667-35.834-250-107.501s-92-170.5-92-296.5c0-121.333 31-217 93-287s145-105 249-105c106 0 187.5 34.333 244.5 103s85.5 166.334 85.5 293.001c0 128-28.5 226.667-85.5 296s-138.5 104-244.5 104zM884.996 1218h-122l-164 230-165-230h-113l215 332h133z" glyph-name="ocircumflex" horiz-adv-x="1200" unicode="&#xf4;"/><glyph d="M594-24c-151.333 0-272.169 47.832-362.502 143.499s-135.5 222.5-135.5 380.5c0 172 47 306.333 141 403s221 145 381 145c152.667 0 271.834-47 357.501-141s128.5-224.333 128.5-391c0-163.333-46.167-294.166-138.5-392.499s-216.166-147.5-371.499-147.5zM605.997 909.999c-105.333 0-188.667-35.834-250-107.501s-92-170.5-92-296.5c0-121.333 31-217 93-287s145-105 249-105c106 0 187.5 34.333 244.5 103s85.5 166.334 85.5 293.001c0 128-28.5 226.667-85.5 296s-138.5 104-244.5 104zM930.996 1458c0-70-16-127.167-48-171.5s-75.333-66.5-130-66.5c-47.333 0-101.333 17.333-162 52-51.333 28.667-91 43-119 43-58.667 0-88-37.667-88-113h-94c0 71.333 16 128.5 48 171.5s76.667 64.5 134 64.5c43.333 0 93-17.333 149-52 49.333-29.333 92-44 128-44 56 0 84 38.667 84 116h98z" glyph-name="otilde" horiz-adv-x="1200" unicode="&#xf5;"/><glyph d="M594-24c-151.333 0-272.169 47.832-362.502 143.499s-135.5 222.5-135.5 380.5c0 172 47 306.333 141 403s221 145 381 145c152.667 0 271.834-47 357.501-141s128.5-224.333 128.5-391c0-163.333-46.167-294.166-138.5-392.499s-216.166-147.5-371.499-147.5zM605.997 909.999c-105.333 0-188.667-35.834-250-107.501s-92-170.5-92-296.5c0-121.333 31-217 93-287s145-105 249-105c106 0 187.5 34.333 244.5 103s85.5 166.334 85.5 293.001c0 128-28.5 226.667-85.5 296s-138.5 104-244.5 104zM792.996 1218c-26.667 0-49.668 9.33105-69.001 27.998s-29 42.334-29 71.001c0 28 9.33301 51.333 28 70s41.334 28 68.001 28c28 0 51.667-9.5 71-28.5s29-42.167 29-69.5-9.33301-50.666-28-69.999-42-29-70-29zM408.995 1218c-28 0-51.833 9.83105-71.5 29.498s-29.5 42.834-29.5 69.501c0 28 9.5 51.333 28.5 70s42.167 28 69.5 28 51-9.5 71-28.5 30-42.167 30-69.5-9.66699-50.666-29-69.999-42.333-29-69-29z" glyph-name="odieresis" horiz-adv-x="1200" unicode="&#xf6;"/><glyph d="M708 868c-29.333 0-54 10.168-74 30.501s-30 45.166-30 74.499c0 30 9.66699 55.667 29 77s44.333 32 75 32c68.667 0 103-35.667 103-107 0-31.333-10.167-57-30.5-77s-44.5-30-72.5-30zM1172 530.001h-940v134h940v-134zM704 112.001c-29.333 0-54.333 10-75 30s-31 44.333-31 73c0 30 10 56 30 78s45.333 33 76 33c67.333 0 101-36.333 101-109 0-30-9.66699-55-29-75s-43.333-30-72-30z" glyph-name="divide" horiz-adv-x="1401" unicode="&#xf7;"/><glyph d="M1174 1048l-168-179.999c65.333-92 98-207.333 98-346 0-168-46.333-301-139-399s-216.334-147-371.001-147c-128 0-234 34-318 102l-145-160-82 78 149 164c-68 91.333-102 204.666-102 339.999 0 172 47.333 306.333 142 403s222 145 382 145c122.667 0 225.334-32.667 308.001-98l162 176zM821 836.001c-52.667 49.333-124.333 74-215 74-106 0-189.5-35.833-250.5-107.5s-91.5-170.5-91.5-296.5c0-88 16.667-162.667 50-224zM891.001 742.001l-508-552c58-50.667 131.667-76 221-76 108.667 0 191.5 34.667 248.5 104s85.5 167.333 85.5 294c0 89.333-15.667 166-47 230z" glyph-name="oslash" horiz-adv-x="1200" unicode="&#xf8;"/><glyph d="M994 0h-164v162h-4c-68-124-173.333-186-316-186-244 0-366 145.333-366 436v612h163v-586c0-216 82.667-324 248-324 80 0 145.833 29.5 197.5 88.5s77.5 136.167 77.5 231.5v590h164v-1024zM705 1218h-127l-262 328h168z" glyph-name="ugrave" horiz-adv-x="1159" unicode="&#xf9;"/><glyph d="M994 0h-164v162h-4c-68-124-173.333-186-316-186-244 0-366 145.333-366 436v612h163v-586c0-216 82.667-324 248-324 80 0 145.833 29.5 197.5 88.5s77.5 136.167 77.5 231.5v590h164v-1024zM840 1546l-262-328h-127l223 328h166z" glyph-name="uacute" horiz-adv-x="1159" unicode="&#xfa;"/><glyph d="M994 0h-164v162h-4c-68-124-173.333-186-316-186-244 0-366 145.333-366 436v612h163v-586c0-216 82.667-324 248-324 80 0 145.833 29.5 197.5 88.5s77.5 136.167 77.5 231.5v590h164v-1024zM854 1218h-122l-164 230-165-230h-113l215 332h133z" glyph-name="ucircumflex" horiz-adv-x="1159" unicode="&#xfb;"/><glyph d="M994 0h-164v162h-4c-68-124-173.333-186-316-186-244 0-366 145.333-366 436v612h163v-586c0-216 82.667-324 248-324 80 0 145.833 29.5 197.5 88.5s77.5 136.167 77.5 231.5v590h164v-1024zM770 1218c-26.667 0-49.668 9.33105-69.001 27.998s-29 42.334-29 71.001c0 28 9.33301 51.333 28 70s41.334 28 68.001 28c28 0 51.667-9.5 71-28.5s29-42.167 29-69.5-9.33301-50.666-28-69.999-42-29-70-29zM385.999 1218c-28 0-51.833 9.83105-71.5 29.498s-29.5 42.834-29.5 69.501c0 28 9.5 51.333 28.5 70s42.167 28 69.5 28 51-9.5 71-28.5 30-42.167 30-69.5-9.66699-50.666-29-69.999-42.333-29-69-29z" glyph-name="udieresis" horiz-adv-x="1159" unicode="&#xfc;"/><glyph d="M981 1024l-470.998-1188c-84-212-202-318-354-318-42.667 0-78.334 4.33301-107.001 13v147c35.333-12 67.666-18 96.999-18 82.667 0 144.667 49.333 186 148l82 194-400 1022h182l277-788c3.33301-10 10.333-36 21-78h6c3.33301 16 10 41.333 20 76l291 790h170zM762.002 1546l-262-328h-127l223 328h166z" glyph-name="yacute" horiz-adv-x="991" unicode="&#xfd;"/><glyph d="M334 148h-4v-619h-164v1987h164v-672h4c80.667 136 198.667 204 354 204 132 0 235-45.833 309-137.5s111-214.5 111-368.5c0-171.333-41.667-308.5-125-411.5s-197.333-154.5-342-154.5c-132.667 0-235 57.333-307 172zM330 561l.00097656-143c0-84.667 27.5-156.5 82.5-215.5s124.833-88.5 209.5-88.5c99.333 0 177.166 38 233.499 114s84.5 181.667 84.5 317c0 114-26.333 203.333-79 268s-124 97-214 97c-95.333 0-172-33.167-230-99.5s-87-149.5-87-249.5z" glyph-name="thorn" horiz-adv-x="1204" unicode="&#xfe;"/><glyph d="M330 0h-164v1024h164v-1024z" glyph-name="dotlessi" horiz-adv-x="496" unicode="&#x131;"/><glyph d="M656 1218h-122l-164 230-165-230h-113l215 332h133z" glyph-name="circumflex" horiz-adv-x="760" unicode="&#x2c6;"/><glyph d="M284 1176c-58 0-106.166 17.5-144.499 52.5s-57.5 80.833-57.5 137.5c0 60 19.667 108 59 144s89.333 54 150 54c59.333 0 108-18 146-54s57-82 57-138-20.333-102.667-61-140-90.334-56-149.001-56zM284.001 1483c-32 0-58.667-10.833-80-32.5s-32-48.5-32-80.5c0-74.667 37.333-112 112-112 33.333 0 61 10.667 83 32s33 48 33 80c0 32.667-11 59.667-33 81s-49.667 32-83 32z" glyph-name="ring" horiz-adv-x="574" unicode="&#x2da;"/><glyph d="M676 1458c0-70-16-127.167-48-171.5s-75.333-66.5-130-66.5c-47.333 0-101.333 17.333-162 52-51.333 28.667-91 43-119 43-58.667 0-88-37.667-88-113h-94c0 71.333 16 128.5 48 171.5s76.667 64.5 134 64.5c43.333 0 93-17.333 149-52 49.333-29.333 92-44 128-44 56 0 84 38.667 84 116h98z" glyph-name="tilde" horiz-adv-x="690" unicode="&#x2dc;"/><glyph glyph-name=".null" horiz-adv-x="0"/><glyph glyph-name="nonmarkingreturn" horiz-adv-x="682"/><glyph d="M639 584h-504v112h185v594l-193-55v125l323 96v-760h189v-112z" glyph-name="onenumerator" horiz-adv-x="719"/><glyph d="M658 584h-554.001v114l240 236c69.333 68 113.333 120.167 132 156.5s28 72.833 28 109.5c0 38.667-12.667 70.167-38 94.5s-58.666 36.5-99.999 36.5c-78.667 0-150.667-34-216-102v149c56 50.667 134.333 76 235 76 78.667 0 141-22 187-66s69-102 69-174c0-102-68.333-218-205-348l-164-156v-4h386v-122z" glyph-name="twonumerator" horiz-adv-x="750"/><glyph d="M129 616l.00097656 142c68.667-50.667 141-76 217-76 53.333 0 95.333 12.5 126 37.5s46 58.833 46 101.5c0 94-73 141-219 141h-84v118h80c131.333 0 197 44.667 197 134 0 79.333-48 119-144 119-62.667 0-124.667-23-186-69v139c58 34 129 51 213 51 75.333 0 135.333-19.833 180-59.5s67-91.5 67-155.5c0-100.667-48.333-169-145-205v-4c118-28 177-95.333 177-202 0-78-28.333-141.667-85-191s-132.334-74-227.001-74c-91.333 0-162.333 17.667-213 53z" glyph-name="threenumerator" horiz-adv-x="750"/><glyph d="M682 788h-110v-204h-132v204h-393v92l369 554h156v-537h110v-109zM444 1308l-4 .00097656c-8-20.667-20.667-45-38-73l-218-338h256v323c0 21.333 1.33301 50.666 4 87.999z" glyph-name="fournumerator" horiz-adv-x="719"/></font>
</defs>
</svg>
